<svg xmlns="http://www.w3.org/2000/svg" width="20.541" height="20.462" viewBox="0 0 20.541 20.462">
  <path id="arrow-down" d="M20.27,99.728a.981.981,0,0,0-.239-.684.762.762,0,0,0-.6-.272L1.41,98.761a.846.846,0,0,0-.423.251.972.972,0,0,0-.253.689l0,8.917a.963.963,0,0,0,.253.668.759.759,0,0,0,.588.287h1.6v1.98a.965.965,0,0,0,.253.669.759.759,0,0,0,.588.287H5.753v1.98a.951.951,0,0,0,.253.684.767.767,0,0,0,.588.271H8.335v1.818a.948.948,0,0,0,.253.684.8.8,0,0,0,.616.272l2.413,0a.815.815,0,0,0,.62-.271.961.961,0,0,0,.253-.685v-1.979h1.769a.75.75,0,0,0,.588-.288.972.972,0,0,0,.253-.668v-1.98h1.742a.752.752,0,0,0,.588-.287,1,1,0,0,0,.253-.669v-2.011h1.742a.755.755,0,0,0,.6-.271.992.992,0,0,0,.239-.684Z" transform="translate(-0.229 -98.261)" fill="#010101" stroke="#010101" stroke-miterlimit="10" stroke-width="1"/>
</svg>
