<svg xmlns="http://www.w3.org/2000/svg" width="39.007" height="39" viewBox="0 0 39.007 39">
  <path id="equis" d="M618,59.082l.007-3.826,3.919.007-.006,3.826Zm.007-3.826.006-3.924,3.92.007-.007,3.924Zm0-3.924.006-3.9,3.92.006-.007,3.9Zm.006-3.9.007-3.924,3.919.007-.006,3.924Zm.013-7.829.007-3.924,3.919.007-.006,3.924Zm0-3.924.007-3.924,3.919.007-.006,3.924Zm.007-3.924.006-3.826,3.92.007-.007,3.826Zm.006-3.826L618.046,24l3.919.007-.006,3.924ZM625.82,59.1l-.007,3.865-3.9-.007.007-3.865Zm-3.9-.007.006-3.826,3.9.007L625.82,59.1Zm.013-11.655.006-3.924,3.9.007-.006,3.924Zm.006-3.924.007-3.9,3.9.007-.007,3.9Zm.007-3.9.006-3.924,3.9.007-.006,3.924Zm.013-11.675.006-3.924,3.9.007-.006,3.924Zm7.78,31.171-.006,3.865-3.92-.007.007-3.865ZM625.82,59.1l.006-3.826,3.92.007-.007,3.826Zm.019-15.579.007-3.9,3.919.007-.006,3.9Zm.02-15.579.006-3.924,3.92.007-.007,3.924Zm7.7,31.165-.007,3.865-3.821-.007.006-3.865Zm-3.822,0,.007-3.826,3.821.006-.006,3.826Zm.007-3.826.006-3.924,3.822.007-.007,3.924Zm.026-23.513.006-3.826,3.822.007-.007,3.826Zm.006-3.826.007-3.924,3.822.007-.007,3.924Zm7.7,31.171-.006,3.865-3.92-.007.007-3.865Zm-3.919-.007.006-3.826,3.92.006-.007,3.826Zm.006-3.826.007-3.924,3.919.007-.006,3.924Zm.007-3.924.006-3.9,3.92.007-.007,3.9Zm.019-15.658.007-3.924,3.92.007-.007,3.924Zm.007-3.924.007-3.826,3.919.007-.006,3.826Zm3.88,27.339.007-3.826,3.92.007-.007,3.826Zm.007-3.826.006-3.924,3.92.007-.006,3.924Zm.033-23.506.006-3.826,3.92.007-.007,3.826Zm0-3.826.006-3.924,3.92.007-.007,3.924Zm7.78,31.171-.007,3.865-3.9-.007.007-3.865Zm-3.9-.007.007-3.826,3.9.007-.007,3.826Zm.02-15.579.006-3.9,3.9.007-.006,3.9Zm.019-15.586.007-3.924,3.9.007-.007,3.924Zm7.781,31.178-.007,3.865-3.92-.007.007-3.865Zm-3.92-.007.007-3.826,3.919.006-.006,3.826Zm.02-11.655.006-3.924,3.92.007-.007,3.924Zm0-3.924.006-3.9,3.92.007-.007,3.9Zm.006-3.911.007-3.924,3.919.007-.006,3.924Zm.013-11.675.007-3.924,3.919.007-.006,3.924Zm7.781,31.171-.007,3.865-3.9-.007.007-3.865Zm-3.9,0,.006-3.826,3.9.007-.006,3.826Zm.006-3.833.007-3.924,3.9.007-.007,3.924Zm.007-3.924.006-3.9,3.9.007-.006,3.9Zm.006-3.9.007-3.924,3.9.007-.007,3.924Zm0-3.924.007-3.9,3.9.007-.007,3.9Zm.007-3.9.006-3.924,3.9.007-.006,3.924Zm.006-3.924.007-3.924,3.9.007-.007,3.924Zm.007-3.924.006-3.826,3.9.007-.006,3.826Zm0-3.826.006-3.924,3.9.007-.006,3.924Zm7.7,31.171L656.954,63l-3.841-.007.007-3.865Zm-3.841-.007.006-3.826,3.841.007-.006,3.826Zm.006-3.826.007-3.924,3.841.007-.007,3.924Zm.007-3.924.006-3.9,3.841.007-.006,3.9Zm.006-7.829.007-3.9,3.841.007-.007,3.9Zm.007-3.9.006-3.924,3.841.007-.006,3.924Zm.006-3.924.007-3.924L657,31.8l-.007,3.924Zm.007-3.924.006-3.826,3.842.007L657,31.8Z" transform="translate(-618 -24)" fill="#fcfcfc"/>
</svg>
