<svg xmlns="http://www.w3.org/2000/svg" width="200.667" height="65" viewBox="0 0 200.667 65">
  <g id="signup" transform="translate(-766 -27)">
    <path id="Trazado_3" data-name="Trazado 3" d="M958.9,80.835v-.009l3.63.008v.009Zm0,11.156,3.616.008.007-5.6v-.009l4.107.009.007-5.554.007-5.7.007-5.668.007-5.7h-.007l.007-5.668.007-5.7.007-5.7-4.107-.009h-.007l.007-5.554-3.665-.008V35.4H774.479v.01L770.3,35.4l-.007,5.7-4.261-.01-.008,5.554-.007,5.7h.007l-.007,5.7-.007,5.668-.007,5.706L766,75.081h.007l-.007,5.7,4.261.01-.007,5.545,4.225.01V92H958.9ZM770.24,75.081h-4.233l4.233.009Zm192.292-5.611h.007l.007-5.7h-.007Z" fill="#456b15" fill-rule="evenodd"/>
    <path id="Trazado_4" data-name="Trazado 4" d="M766,72.374l.007-5.7,4.233.009v-.009H766l.007-5.668.007-5.706.007-5.668.007-5.7h-.007l.007-5.7.008-5.554,4.261.01L770.3,27l4.175.009V27H958.9v5.745l3.665.008-.007,5.554h.007l4.107.009-.007,5.7-.007,5.7-.007,5.668h.007l-.007,5.7-.007,5.668-.007,5.7-.007,5.554-4.107-.009v.009l-.007,5.6-3.616-.008V83.6H774.479V77.938l-4.225-.009.007-5.545Zm192.9.058,3.63.008v-.009l-3.63-.008Zm3.637-11.366h.007l.007-5.7h-.007Z" fill="#8ec440" fill-rule="evenodd"/>
    <path id="Trazado_5" data-name="Trazado 5" d="M787,62.082l.005-2.647,3.042,0-.005,2.647Zm.005-2.647.005-2.634,3.042,0-.005,2.634Zm0-2.638.005-2.647,3.042,0-.005,2.647Zm.005-2.647.005-2.633,3.043,0-.006,2.633Zm.005-2.633.005-2.647,3.043,0-.005,2.647Zm.005-2.647.005-2.647,3.043,0-.005,2.647Zm0-2.647.005-2.581,3.043,0-.005,2.581Zm3.017,18.439.005-2.581,3.027,0,0,2.581Zm.005-2.581.005-2.647,3.027,0-.005,2.647Zm.005-5.28.005-2.647,3.028,0-.006,2.647Zm.005-2.647.006-2.633,3.027,0-.005,2.634Zm.011-7.927.005-2.581,3.027,0,0,2.581Zm.005-2.581L790.073,41l3.027,0-.005,2.647Zm6.039,21.024-.005,2.607-3.043,0,.005-2.607Zm-3.043,0,0-2.581,3.043,0-.005,2.581Zm.016-7.861.005-2.647,3.042,0-.005,2.647Zm.015-13.154L793.1,41l3.042,0-.005,2.647Zm5.978,21.024-.005,2.607-2.966,0,.005-2.607Zm-2.966,0,.005-2.581,2.966,0-.005,2.581Zm.01-5.227.005-2.634,2.966,0-.005,2.634Zm.005-2.634.005-2.647,2.966,0-.005,2.647Zm.005-5.28.005-2.647,2.966,0-.005,2.647Zm.005-2.647.005-2.647,2.966,0-.005,2.647Zm.005-5.232L796.142,41l2.966,0,0,2.647Zm5.978,21.024-.005,2.607-3.042,0,.005-2.607Zm-3.042,0,.005-2.581,3.042,0-.005,2.581Zm.01-5.227.005-2.634,3.042,0-.005,2.633Zm.005-2.638.005-2.647,3.042,0-.005,2.647Zm.005-5.28.005-2.647,3.043,0-.006,2.647Zm.005-2.647.005-2.647,3.043,0-.005,2.647Zm.005-5.227,0-2.647,3.043,0-.005,2.647Zm6.055,21.024-.006,2.607-3.042,0,.005-2.607Zm-3.043,0,.005-2.581,3.043,0-.005,2.581Zm.01-5.227.005-2.634,3.043,0,0,2.633Zm.005-2.634.005-2.647,3.043,0-.005,2.647Zm.005-5.28.006-2.647,3.042,0-.005,2.647Zm.006-2.647.005-2.647,3.042,0-.005,2.647Zm.005-5.227.005-2.647,3.042,0-.005,2.647Zm6.044,21.024-.005,2.607-3.027,0,.005-2.607Zm-3.032,0,.005-2.581,3.027,0-.005,2.581Zm.02-13.141.005-2.647,3.027,0-.005,2.647Zm.01-7.874.005-2.647,3.027,0,0,2.647Zm6.044,21.024-.005,2.607-3.042,0,.005-2.607Zm-3.042,0L808.2,62.1l3.042,0-.005,2.581Zm0-2.581.005-2.647,3.042,0-.005,2.647Zm.015-7.927.005-2.634,3.042,0-.005,2.634Zm0-2.634.005-2.647,3.042,0-.005,2.647Zm.01-5.293,0-2.581,3.042,0-.005,2.581Zm0-2.585,0-2.647,3.042,0-.005,2.647Zm6.044,21.024,0,2.607-3.027,0,.005-2.607Zm-3.027,0,.005-2.581,3.027,0-.005,2.581Zm0-2.581.005-2.647,3.027,0-.005,2.647Zm.005-2.647.005-2.633,3.027,0-.005,2.633Zm.005-2.633.005-2.647,3.027,0-.005,2.647Zm.005-2.647.005-2.634,3.027,0-.005,2.633Zm0-2.638.005-2.647,3.027,0-.005,2.647Zm.005-2.647.005-2.647,3.027,0-.005,2.647Zm.005-2.647.005-2.581,3.028,0-.006,2.581Zm3,18.439.005-2.581,2.982,0,0,2.581Zm0-2.581.005-2.647,2.982,0,0,2.647Zm.005-2.647.005-2.633,2.982,0-.005,2.633Zm.005-2.633.005-2.647,2.982,0-.005,2.647Zm.005-2.647.005-2.634,2.982,0-.005,2.633Zm0-2.634.005-2.647,2.982,0-.005,2.647Zm.005-2.647.005-2.647,2.982,0-.005,2.647Z" fill="#fff"/>
    <path id="Trazado_6" data-name="Trazado 6" d="M814.259,64.689l.005-2.581,3.042,0-.005,2.581Zm0-2.581.005-2.647,3.042,0-.005,2.647Zm.005-2.647.005-2.633,3.042,0,0,2.634Zm.005-2.633.005-2.647,3.043,0-.006,2.647Zm.005-2.647.005-2.633,3.043,0-.005,2.633Zm0-2.633.005-2.647,3.043,0-.005,2.647Zm.005-2.647.005-2.647,3.043,0-.005,2.647Zm.005-2.647.005-2.581,3.043,0,0,2.581Zm.005-2.581.006-2.647,3.042,0-.005,2.647ZM820.328,64.7l-.005,2.607-3.027,0,.005-2.607Zm-3.027,0,.005-2.581,3.028,0-.006,2.581Zm.031-21.015.005-2.647,3.027,0-.005,2.647ZM823.371,64.7l0,2.607-3.043,0,.005-2.607Zm-3.043,0,.006-2.581,3.042,0-.005,2.581Zm.031-21.016.005-2.647,3.042,0-.005,2.647Zm5.978,21.02-.005,2.607-2.966,0,0-2.607Zm-2.966,0,.005-2.581,2.966,0-.005,2.581Zm0-2.581.005-2.647,2.966,0-.005,2.647Zm.005-2.647.005-2.634,2.966,0-.005,2.634Zm.005-2.638.005-2.647,2.966,0-.005,2.647Zm.005-2.647.005-2.633,2.966,0-.005,2.633Zm0-2.633.005-2.647,2.966,0-.005,2.647Zm.005-2.647.005-2.647,2.966,0-.005,2.647Zm.005-2.647.005-2.581,2.966,0-.005,2.581Zm.005-2.581.005-2.647,2.966,0-.005,2.647Zm5.978,21.024-.005,2.607-3.042,0,.005-2.607Zm-3.042,0,.005-2.581,3.042,0,0,2.581Zm0-2.581.005-2.647,3.042,0,0,2.647Zm.005-2.647.005-2.634,3.042,0-.005,2.634Zm.005-2.634.005-2.647,3.043,0-.006,2.647Zm.005-2.647.005-2.633,3.043,0L829.4,54.2Zm0-2.633.005-2.647,3.043,0-.005,2.647Zm.005-2.647.005-2.647,3.043,0-.005,2.647Zm.005-2.647.005-2.581,3.043,0,0,2.581Z" fill="#fff"/>
    <path id="Trazado_7" data-name="Trazado 7" d="M855.777,65.358l.005-2.581,3.042,0-.005,2.581Zm0-2.581.005-2.647,3.042,0-.005,2.647Zm.005-2.647.005-2.634,3.042,0-.005,2.634Zm.005-2.634.005-2.647,3.042,0-.005,2.647Zm.005-2.647.005-2.633,3.042,0-.005,2.633Zm0-2.633.005-2.647,3.042,0-.005,2.647Zm.005-2.647.005-2.647,3.043,0-.006,2.647Zm.005-2.647.005-2.581,3.043,0-.005,2.581Zm.005-2.581.005-2.647,3.043,0-.005,2.647Zm6.039,21.024-.005,2.607-3.027,0,0-2.607Zm-3.027,0,.005-2.581,3.027,0-.005,2.581Zm.031-21.015.005-2.647,3.027,0-.005,2.647Zm6.039,21.024-.006,2.607-3.042,0,.005-2.607Zm-3.043,0,.005-2.581,3.043,0-.005,2.581Zm.031-21.02.005-2.647,3.042,0-.005,2.647Zm5.978,21.024-.005,2.607-2.967,0,.006-2.607Zm-2.966,0,.005-2.581,2.966,0-.005,2.581Zm.005-2.581.005-2.647,2.966,0-.005,2.647Zm0-2.647.005-2.633,2.966,0-.005,2.633Zm.005-2.638.005-2.647,2.966,0-.005,2.647Zm.005-2.647.005-2.634,2.966,0-.005,2.634Zm.01-7.927.005-2.581,2.966,0-.005,2.581Zm.005-2.581.005-2.647,2.966,0-.005,2.647ZM870.9,65.375l0,2.607-3.042,0,.005-2.607Zm-3.042,0,.005-2.581,3.042,0-.005,2.581Zm.005-2.581.005-2.647,3.042,0-.005,2.647Zm0-2.647.005-2.633,3.042,0-.005,2.633Zm.005-2.633.005-2.647,3.042,0-.005,2.647Zm.01-7.927.005-2.647,3.042,0-.005,2.647Zm.005-2.647.005-2.581,3.043,0-.006,2.581ZM870.9,65.375l.005-2.581,3.043,0-.006,2.581Zm.005-2.581.005-2.647,3.043,0-.005,2.647Zm0-2.647.005-2.633,3.043,0-.005,2.633Zm.015-7.914.005-2.647,3.043,0-.005,2.647Zm0-2.647.005-2.647,3.043,0-.005,2.647Zm.005-2.647.006-2.581,3.042,0,0,2.581Zm.006-2.581.005-2.647,3.042,0-.005,2.647Zm6.039,21.024-.006,2.607-3.027,0,.005-2.607Zm-3.028,0,.006-2.581,3.027,0-.005,2.581Zm.031-21.02.005-2.647,3.027,0L877,44.364Zm6.039,21.024,0,2.607-3.043,0,.006-2.607Zm-3.042,0,.005-2.581,3.042,0-.005,2.581Zm.03-21.02L877,41.717l3.042,0-.005,2.647Zm6.039,21.024L883.031,68l-3.027,0,0-2.607Zm-3.027,0,.005-2.581,3.027,0-.005,2.581Zm.005-2.581.005-2.647,3.027,0-.005,2.647Zm0-2.647.005-2.633,3.027,0-.005,2.634Zm.005-2.633.005-2.647,3.027,0-.005,2.647Zm.005-2.647.005-2.633,3.027,0-.005,2.633Zm.005-2.633.005-2.647,3.027,0,0,2.647Zm.005-2.647.005-2.647,3.027,0-.005,2.647Zm0-2.647.005-2.581,3.027,0-.005,2.581Zm.005-2.581.005-2.647,3.027,0-.005,2.647Zm5.978,21.024L886.012,68l-2.981,0,.005-2.607Zm-2.981,0,.005-2.581,2.981,0,0,2.581Zm.005-2.581.005-2.647,2.982,0-.006,2.647Zm.005-2.647.005-2.634,2.982,0-.005,2.634Zm0-2.634.005-2.647,2.982,0-.005,2.647Zm.005-2.647.005-2.633,2.982,0-.005,2.634Zm.005-2.633,0-2.647,2.982,0-.005,2.647Zm0-2.647.005-2.647,2.982,0,0,2.647Zm0-2.647.005-2.581,2.982,0,0,2.581Z" fill="#fff"/>
    <path id="Trazado_8" data-name="Trazado 8" d="M825.839,62.777l.005-2.647,3.042,0-.005,2.647Zm0-2.647.005-2.634,3.042,0-.005,2.634Zm.005-2.634.005-2.647,3.042,0-.005,2.647Zm.005-2.647.005-2.633,3.042,0-.005,2.633Zm.005-2.633.005-2.647,3.042,0-.005,2.647Zm0-2.647.005-2.647,3.042,0-.005,2.647Zm.005-2.647.005-2.581,3.042,0-.005,2.581Zm3.017,18.439.005-2.581,3.027,0-.005,2.581Zm.005-2.581.005-2.647,3.027,0-.005,2.647Zm.02-15.854.005-2.581,3.027,0-.005,2.581Zm.005-2.585.005-2.647,3.028,0-.006,2.647Zm6.039,21.024-.005,2.607-3.042,0,.005-2.607Zm-3.042,0,.005-2.581,3.042,0-.005,2.581Zm.03-21.02.006-2.647,3.042,0-.005,2.647Zm5.979,21.024-.005,2.607-2.967,0,.005-2.607Zm-2.967,0,.005-2.581,2.967,0-.005,2.581Zm.011-5.227.005-2.634,2.966,0-.005,2.633Zm0-2.634.005-2.647,2.966,0-.005,2.647Zm.005-2.647.005-2.634,2.966,0-.005,2.634Zm.005-2.634.005-2.647,2.966,0-.005,2.647Zm.005-2.647.005-2.647,2.966,0-.005,2.647Zm.005-5.227.005-2.647,2.966,0-.005,2.647Zm5.978,21.024-.005,2.607-3.042,0,.005-2.607Zm-3.042,0,.005-2.581,3.042,0-.005,2.581Zm.01-5.227.005-2.633,3.042,0-.005,2.633Zm0-2.633.005-2.647,3.042,0-.005,2.647Zm.005-2.647.005-2.634,3.042,0-.005,2.634Zm.005-2.634.005-2.647,3.042,0-.005,2.647Zm.005-2.647.005-2.647,3.042,0-.005,2.647Zm.005-5.227.005-2.647,3.042,0-.005,2.647ZM844,65.38l0,2.607-3.042,0,.005-2.607Zm-3.042,0,.005-2.581,3.042,0L844,65.38Zm.01-5.227.005-2.633,3.042,0-.005,2.633Zm0-2.633.005-2.647,3.042,0-.005,2.647Zm.01-5.28.005-2.647,3.043,0,0,2.647Zm.005-2.647.005-2.647,3.043,0-.005,2.647Zm.005-5.232.005-2.647,3.043,0-.005,2.647Zm6.039,21.024-.005,2.607-3.027,0,0-2.607Zm-3.027,0L844,62.8l3.027,0-.005,2.581ZM844,62.795l.005-2.647,3.027,0-.005,2.647Zm.016-10.561,0-2.647,3.027,0-.005,2.647Zm.01-7.874.005-2.647,3.027,0-.005,2.647Zm6.039,21.024-.005,2.607-3.043,0,.005-2.607Zm-3.043,0,.005-2.581,3.043,0-.005,2.581Zm.021-13.141.005-2.647,3.042,0-.005,2.647Zm.005-5.293.005-2.581,3.042,0-.005,2.581Zm.005-2.581.005-2.647,3.042,0-.005,2.647Zm6.039,21.024L853.088,68l-3.027,0,.005-2.607Zm-3.027,0,.005-2.581,3.027,0-.005,2.581Zm.005-2.581.005-2.647,3.027,0-.005,2.647Zm.005-2.647.005-2.633,3.027,0,0,2.634Zm0-2.633.005-2.647,3.027,0,0,2.647Zm.005-2.647.005-2.633,3.027,0-.005,2.633Zm.005-2.633.005-2.647,3.027,0-.005,2.647Zm.005-2.647.005-2.647,3.027,0-.005,2.647Zm0-2.647.005-2.581,3.027,0-.005,2.581Zm5.983,18.444L856.069,68l-2.981,0,.005-2.607Zm-2.981,0,.005-2.581,2.981,0-.005,2.581Zm.005-2.581.005-2.647,2.981,0-.005,2.647Zm.005-2.647,0-2.634,2.981,0-.005,2.629Zm0-2.634,0-2.647,2.981,0-.005,2.647Zm0-2.647.005-2.633,2.981,0-.005,2.634Zm.005-2.633.005-2.647,2.982,0-.006,2.647Zm.005-2.647.005-2.647,2.982,0L856.1,49.6Z" fill="#fff"/>
    <path id="Trazado_9" data-name="Trazado 9" d="M889.475,62.192l.005-2.647,3.042,0,0,2.647Zm0-2.647.005-2.634,3.042,0,0,2.633Zm.005-2.634.005-2.647,3.043,0-.006,2.647Zm.005-2.647.005-2.634,3.043,0-.005,2.634Zm.005-2.634.005-2.647,3.043,0-.005,2.647Zm0-2.647.005-2.647,3.043,0-.005,2.647Zm.005-2.647.005-2.581,3.043,0-.005,2.581Zm.005-2.581.006-2.647,3.042,0,0,2.647Zm3.012,21.02.005-2.581,3.027,0-.005,2.581Zm.005-2.581,0-2.647,3.028,0-.006,2.647Zm.026-18.439,0-2.647,3.027,0-.005,2.647Zm6.039,21.024,0,2.607-3.043,0,.005-2.607Zm-3.043,0,.005-2.581,3.043,0-.005,2.581Zm.031-21.016.005-2.647,3.042,0-.005,2.647Zm5.978,21.024,0,2.607-2.966,0,0-2.607Zm-2.966,0,.005-2.581,2.966,0-.005,2.581Zm.005-5.227.005-2.634,2.966,0-.005,2.633Zm.005-2.634.005-2.647,2.966,0-.005,2.647Zm.005-2.647.005-2.634,2.966,0-.005,2.634Zm.005-2.634.005-2.647,2.966,0-.005,2.647Zm0-2.647.005-2.647,2.966,0L901.568,49Zm.005-2.647.005-2.581,2.966,0-.005,2.581Zm.005-2.581.005-2.647,2.966,0-.005,2.647ZM904.59,64.79l-.005,2.607-3.042,0,0-2.607Zm-3.042,0,.005-2.581,3.042,0,0,2.581Zm.01-5.227.005-2.633,3.042,0-.005,2.633Zm0-2.633.005-2.647,3.042,0-.005,2.647Zm.005-2.647.005-2.634,3.043,0-.006,2.634Zm.005-2.634L901.573,49l3.043,0-.005,2.647ZM901.573,49l.005-2.647,3.043,0,0,2.647Zm0-2.647.005-2.581,3.043,0,0,2.581Zm6.06,18.439-.005,2.607-3.043,0,.005-2.607Zm-3.043,0,0-2.581,3.043,0-.005,2.581Zm.01-5.227.005-2.633,3.043,0-.005,2.633Zm0-2.638.005-2.647,3.043,0-.005,2.647Zm.005-2.647.006-2.634,3.042,0-.005,2.634Zm.006-2.634L904.616,49l3.042,0-.005,2.647ZM904.616,49l0-2.647,3.042,0L907.658,49Zm0-2.647,0-2.581,3.042,0-.005,2.581Zm0-2.581.005-2.647,3.042,0-.005,2.647Zm6.039,21.024,0,2.607-3.027,0,.005-2.607Zm-3.027,0,.005-2.581,3.027,0-.005,2.581Zm.03-21.015.005-2.647,3.027,0-.005,2.647ZM913.7,64.8l-.005,2.607-3.042,0,0-2.607Zm-3.042,0,.005-2.581,3.042,0,0,2.581Zm.005-2.581.005-2.647,3.042,0-.005,2.647Zm.025-18.435.005-2.647,3.042,0-.005,2.647ZM916.729,64.8l-.005,2.607-3.027,0L913.7,64.8Zm-3.027,0,0-2.581,3.027,0-.005,2.581Zm0-2.581.005-2.647,3.027,0-.005,2.647Zm.005-2.647.005-2.634,3.027,0-.005,2.634Zm0-2.634.005-2.647,3.027,0-.005,2.647Zm.005-2.647.005-2.633,3.027,0-.005,2.633Zm.005-2.633.005-2.647,3.027,0-.005,2.647Zm.005-2.647.005-2.647,3.028,0-.006,2.647Zm0-2.647.005-2.581,3.028,0-.006,2.581Zm.005-2.585.005-2.647,3.028,0-.005,2.647Zm3,21.024.005-2.581,2.982,0-.005,2.581Zm.005-2.581.005-2.647,2.982,0-.005,2.647Zm.005-2.647.005-2.634,2.982,0-.005,2.634Zm.005-2.638.005-2.647,2.982,0-.005,2.647Zm0-2.647.005-2.633,2.982,0-.005,2.633Zm.005-2.633.005-2.647,2.982,0-.005,2.647Zm.005-2.647.006-2.647,2.981,0-.005,2.647Zm.006-2.647.005-2.581,2.981,0,0,2.581Z" fill="#fff"/>
    <path id="Trazado_10" data-name="Trazado 10" d="M916.729,64.8l.005-2.581,3.042,0-.005,2.581Zm.005-2.581.005-2.647,3.043,0-.006,2.647Zm.005-2.647.005-2.633,3.043,0-.005,2.634Zm.005-2.638.005-2.647,3.043,0-.005,2.647Zm0-2.647.005-2.634,3.043,0-.005,2.634Zm.005-2.634.005-2.647,3.043,0-.005,2.647Zm.005-2.647,0-2.647,3.043,0-.005,2.647Zm0-2.647.006-2.581,3.042,0-.005,2.581Zm0-2.581.006-2.647,3.042,0-.005,2.647ZM922.8,64.808l0,2.607-3.027,0,.005-2.607Zm-3.027,0,.005-2.581,3.028,0-.006,2.581Zm.031-21.015.005-2.647,3.027,0-.005,2.647Zm6.039,21.024-.005,2.607-3.043,0,0-2.607Zm-3.043,0,.006-2.581,3.042,0-.005,2.581Zm.031-21.015.005-2.647,3.042,0-.005,2.647Zm5.978,21.024-.005,2.607-2.966,0,.005-2.607Zm-2.966,0,.005-2.581,2.966,0-.005,2.581Zm.005-2.581.005-2.647,2.966,0-.005,2.647Zm.005-2.647.005-2.633,2.966,0-.005,2.633Zm.005-5.28.005-2.634,2.966,0-.005,2.633Zm.005-2.634.005-2.647,2.966,0,0,2.647Zm.005-2.647,0-2.647,2.966,0-.005,2.647Zm0-5.232.005-2.647,2.967,0-.006,2.647Zm5.978,21.024-.005,2.607-3.042,0,.005-2.607Zm-3.042,0,.005-2.581,3.042,0-.005,2.581Zm.005-2.585.005-2.647,3.042,0-.005,2.647Zm.005-2.647.005-2.633,3.043,0-.006,2.633Zm.005-5.28.005-2.634,3.043,0-.005,2.633Zm.005-2.634,0-2.647,3.043,0-.005,2.647Zm0-2.647.005-2.647,3.043,0-.005,2.647Zm.005-5.227.006-2.647,3.042,0L931.88,43.8Zm3.017,18.439.005-2.647,3.043,0-.005,2.647Zm.005-2.647.006-2.633,3.042,0-.005,2.634Zm.006-5.28.005-2.633,3.042,0-.005,2.633Zm.005-2.633.005-2.647,3.042,0-.005,2.647Zm.005-2.647.005-2.647,3.042,0-.005,2.647Zm.005-5.227.005-2.647,3.042,0-.005,2.647ZM934.9,62.241l.005-2.647,3.027,0-.005,2.647Zm.005-2.647.005-2.634,3.027,0-.005,2.634Zm.02-15.788.005-2.647,3.027,0-.005,2.647Zm3,18.439.005-2.647,3.042,0-.005,2.647Zm.005-2.647.005-2.634,3.042,0-.005,2.634Zm.005-2.634.005-2.647,3.042,0-.005,2.647Zm.015-10.574.005-2.581,3.043,0-.006,2.581Zm0-2.585.005-2.647,3.043,0-.006,2.647Zm3.017,18.444.005-2.647,3.027,0-.005,2.647Zm.005-2.647.005-2.634,3.027,0L944,59.607Zm.005-2.638.005-2.647,3.027,0L944,56.969Zm0-2.647.005-2.633,3.027,0L944,54.322Zm.005-2.633.005-2.647,3.027,0-.005,2.647Zm.005-2.647.005-2.647,3.028,0-.006,2.647Zm.005-2.647L941,43.81l3.027,0-.005,2.581ZM944,59.6,944,56.969l2.982,0-.005,2.634ZM944,56.969l.005-2.647,2.982,0-.005,2.647Zm.005-2.647.005-2.633,2.982,0-.005,2.634Zm0-2.633.005-2.647,2.982,0-.005,2.647Zm.005-2.647.006-2.647,2.981,0-.005,2.647Z" fill="#fff"/>
  </g>
</svg>
