<svg xmlns="http://www.w3.org/2000/svg" width="20.918" height="17" viewBox="0 0 20.918 17">
  <path id="twitter" d="M21.459,2.012a8.579,8.579,0,0,1-2.465.676A4.3,4.3,0,0,0,20.881.314a8.591,8.591,0,0,1-2.725,1.041A4.3,4.3,0,0,0,10.843,5.27,12.184,12.184,0,0,1,2,.786a4.3,4.3,0,0,0,1.328,5.73,4.276,4.276,0,0,1-1.944-.537c0,.018,0,.036,0,.054a4.294,4.294,0,0,0,3.443,4.208,4.3,4.3,0,0,1-1.938.074,4.3,4.3,0,0,0,4.009,2.98,8.61,8.61,0,0,1-5.33,1.837,8.715,8.715,0,0,1-1.024-.06A12.147,12.147,0,0,0,7.12,17,12.127,12.127,0,0,0,19.33,4.789q0-.279-.013-.555A8.719,8.719,0,0,0,21.459,2.012Z" transform="translate(-0.541)" fill="#fff"/>
</svg>
