<svg xmlns="http://www.w3.org/2000/svg" width="20" height="19.995" viewBox="0 0 20 19.995">
  <path id="arrow-right" d="M2.61,18.584,2.615,1.411h7.713V4.055h3.046V6.7h3.014V9.37H19.4V10.8H16.555v2.644H13.54v2.643H10.526v2.5ZM1,19.3a.865.865,0,0,0,.257.433A1,1,0,0,0,1.966,20l9.155,0a.992.992,0,0,0,.687-.259.775.775,0,0,0,.295-.6V17.5h2.033a.992.992,0,0,0,.686-.259.775.775,0,0,0,.3-.6V14.859H17.15a.977.977,0,0,0,.7-.259.792.792,0,0,0,.279-.6V12.215H20a.977.977,0,0,0,.7-.259.821.821,0,0,0,.279-.63l.005-2.469a.821.821,0,0,0-.279-.63.986.986,0,0,0-.7-.259H17.97V6.157a.775.775,0,0,0-.3-.6,1,1,0,0,0-.687-.259H14.956V3.514a.768.768,0,0,0-.3-.6,1,1,0,0,0-.686-.259H11.91V.87a.773.773,0,0,0-.279-.616,1.019,1.019,0,0,0-.7-.245L1.966,0a1.01,1.01,0,0,0-.7.245A.779.779,0,0,0,.985.865Z" transform="translate(-0.984 -0.005)" fill="#010101"/>
</svg>
