<svg xmlns="http://www.w3.org/2000/svg" width="299.667" height="65" viewBox="0 0 299.667 65">
  <g id="greenpaper" transform="translate(-480 -404)">
    <path id="Trazado_20" data-name="Trazado 20" d="M768.06,457.836v-.01l5.422.008v.01Zm0,11.156,5.4.008.011-5.6v-.009l6.132.009.011-5.554.01-5.7.01-5.668.011-5.7h-.011l.011-5.668.01-5.7.011-5.7-6.133-.01h-.01l.01-5.554-5.474-.008V412.4h-275.4v.01l-6.235-.009-.01,5.7-6.364-.009-.011,5.554-.01,5.7h.01l-.01,5.7-.011,5.669-.01,5.706L480,452.081h.011l-.011,5.7,6.364.009-.011,5.545,6.309.009V469h275.4ZM486.331,452.081h-6.32l6.32.009Zm287.161-5.612h.011l.01-5.7h-.01Z" fill="#456b15" fill-rule="evenodd"/>
    <path id="Trazado_21" data-name="Trazado 21" d="M480,449.374l.011-5.7,6.32.01v-.01H480l.011-5.668.01-5.706.011-5.668.01-5.7h-.01l.01-5.7.011-5.554,6.364.01.011-5.7,6.234.009V404h275.4v5.745l5.474.009-.011,5.554h.011l6.133.009-.011,5.7-.01,5.7-.011,5.668h.011l-.011,5.7-.01,5.669-.011,5.7-.01,5.555-6.133-.01v.01l-.01,5.6-5.4-.008v.008h-275.4v-5.658l-6.309-.01.011-5.545Zm288.06.058,5.422.008v-.009l-5.422-.008Zm5.432-11.366h.011l.01-5.7h-.01Z" fill="#8ec440" fill-rule="evenodd"/>
    <path id="Trazado_22" data-name="Trazado 22" d="M500,440.416l.005-2.689,2.751.005-.005,2.689Zm.005-2.689,0-2.675,2.751.005,0,2.675Zm0-2.679,0-2.689,2.751,0,0,2.689Zm0-2.689.005-2.676,2.751,0-.005,2.675Zm.005-2.676,0-2.688,2.751,0,0,2.689Zm0-2.688.005-2.689,2.751,0,0,2.689Zm0-2.689.005-2.622,2.751.005,0,2.621Zm2.728,18.732.005-2.622,2.737.005-.005,2.621Zm.005-2.622.005-2.689,2.737.005-.005,2.689Zm.018-16.106,0-2.621,2.737,0,0,2.622Zm0-2.621,0-2.689,2.738,0-.005,2.689Zm5.46,21.358,0,2.648-2.751,0,0-2.649Zm-2.751-.005.005-2.621,2.751,0-.005,2.622Zm.028-21.349.005-2.689,2.751.005-.005,2.689Zm5.406,21.358-.005,2.649-2.682-.005,0-2.648Zm-2.683,0,.005-2.622,2.682.005,0,2.621Zm.01-5.311,0-2.675,2.682.005,0,2.675Zm0-2.675.005-2.689,2.682.005-.005,2.689Zm0-2.689.005-2.675,2.682,0-.005,2.676Zm.005-2.675,0-2.689,2.682.005,0,2.688Zm0-2.689.005-2.689,2.682.005-.005,2.689Zm.005-5.315.005-2.689,2.682.005-.005,2.689Zm5.4,21.358,0,2.649-2.751-.005.005-2.648Zm-2.75,0,0-2.621,2.751,0-.005,2.622Zm.009-5.31,0-2.675,2.751,0,0,2.675Zm0-2.68.005-2.689,2.751.005,0,2.689Zm0-2.689.005-2.675,2.751,0,0,2.676Zm.005-2.675,0-2.689,2.751.005,0,2.688Zm0-2.689.005-2.689,2.751.005-.005,2.689Zm.005-5.31.005-2.689,2.751,0L513.7,421.7Zm5.474,21.358,0,2.648-2.751,0,0-2.649Zm-2.751-.005.005-2.621,2.751,0,0,2.622Zm.01-5.31,0-2.675,2.751,0,0,2.675Zm0-2.675,0-2.689,2.751,0-.005,2.689Zm0-5.365,0-2.688,2.751,0,0,2.689Zm0-2.688.005-2.689,2.751,0-.005,2.689Zm.005-5.311.005-2.689,2.75.005,0,2.689Zm5.465,21.358,0,2.649-2.738-.005,0-2.648Zm-2.742,0,0-2.622,2.737.005,0,2.621Zm0-2.622.005-2.689,2.737.005-.005,2.689Zm.014-10.728,0-2.689,2.737.005,0,2.688Zm.009-8,0-2.689,2.738,0-.005,2.689Zm5.465,21.358-.005,2.648-2.75,0,0-2.649Zm-2.751-.005.005-2.621,2.751,0-.005,2.622Zm.014-13.35,0-2.688,2.751,0,0,2.689Zm.009-5.377.005-2.622,2.751.005-.005,2.621Zm0-2.626.005-2.689,2.751,0-.005,2.689Zm5.465,21.358,0,2.648-2.738,0,.005-2.649Zm-2.737,0,.005-2.622,2.737.005-.005,2.621Zm0-2.622.005-2.689,2.737.005-.005,2.689Zm.005-2.689,0-2.675,2.737,0,0,2.676Zm0-2.675.005-2.689,2.737,0-.005,2.688Zm.005-2.689,0-2.675,2.738,0-.005,2.676Zm0-2.68,0-2.688,2.738,0-.005,2.689Zm0-2.688.005-2.689,2.737,0,0,2.689Zm.005-2.689.005-2.622,2.737.005-.005,2.621Zm5.41,18.736,0,2.649-2.7,0,0-2.648Zm-2.7,0,.005-2.622,2.7.005-.005,2.621Zm0-2.622.005-2.689,2.7.005-.005,2.689Zm.005-2.689,0-2.675,2.7,0,0,2.676Zm0-2.675.005-2.689,2.7,0,0,2.688Zm.005-2.689.005-2.675,2.7,0,0,2.676Zm0-2.675.005-2.689,2.7.005,0,2.688Zm.005-2.689,0-2.689,2.7.005-.005,2.689Z" fill="#fff"/>
    <path id="Trazado_23" data-name="Trazado 23" d="M524.648,443.065l.005-2.622,2.751.005-.005,2.621Zm0-2.622.005-2.689,2.751.005-.005,2.689Zm.005-2.689,0-2.675,2.751,0,0,2.676Zm0-2.675.005-2.689,2.751,0-.005,2.688Zm.005-2.689.005-2.675,2.75,0,0,2.676Zm0-2.675.005-2.689,2.75.005,0,2.688Zm.005-2.689,0-2.689,2.751.005-.005,2.689Zm0-2.689.005-2.621,2.751,0-.005,2.622Zm.005-2.621,0-2.689,2.751,0,0,2.689Zm5.46,21.358,0,2.648-2.737,0,0-2.649Zm-2.737-.005.005-2.621,2.737,0-.005,2.622Zm.028-21.349,0-2.689,2.737.005,0,2.689Zm5.46,21.358,0,2.649-2.751-.005,0-2.648Zm-2.751,0,.005-2.622,2.751.005-.005,2.621Zm.028-21.349,0-2.689,2.751,0,0,2.689Zm5.4,21.353,0,2.649-2.682-.005,0-2.648Zm-2.682,0,.005-2.621,2.682,0-.005,2.622Zm0-2.621.005-2.689,2.682,0-.005,2.689Zm.005-2.689,0-2.676,2.683,0-.005,2.675Zm0-2.68.005-2.689,2.682.005,0,2.688Zm.005-5.364.005-2.689,2.682.005-.005,2.688Zm.005-2.689,0-2.689,2.682.005,0,2.689Zm.009-5.31,0-2.689,2.682,0,0,2.689Zm5.405,21.358,0,2.648-2.751,0,0-2.649Zm-2.751-.005.005-2.621,2.751,0-.005,2.622Zm0-2.621.005-2.689,2.751,0-.005,2.689Zm.005-2.689.005-2.676,2.75,0,0,2.675Zm.005-2.676,0-2.688,2.751,0-.005,2.689Zm0-5.364.005-2.688,2.751,0-.005,2.689Zm.005-2.688,0-2.689,2.751,0,0,2.689Zm.009-5.311,0-2.689,2.751.005,0,2.689Zm2.723,21.354.005-2.622,2.751.005-.005,2.621Zm0-2.622.005-2.689,2.751.005-.005,2.689Zm.005-2.689,0-2.675,2.751,0,0,2.676Zm0-2.675.005-2.689,2.751.005-.005,2.688Zm.005-5.364.005-2.689,2.751,0-.005,2.689Zm.005-2.689,0-2.689,2.751,0,0,2.688Zm.009-5.31,0-2.689,2.751,0,0,2.689Zm5.46,21.358,0,2.648-2.737,0,0-2.649Zm-2.737-.005.005-2.621,2.737,0-.005,2.622Zm.028-21.353,0-2.689,2.737,0,0,2.689Zm5.46,21.358,0,2.648-2.751,0,0-2.649Zm-2.751,0,.005-2.622,2.751.005-.005,2.621Zm.014-10.679.005-2.676,2.751.005-.005,2.675Zm.009-8.053.005-2.622,2.751.005-.005,2.621Zm.005-2.622,0-2.689,2.751,0,0,2.689ZM549.3,443.1l0,2.649-2.737-.005,0-2.648Zm-2.737,0,.005-2.622,2.737.005L549.3,443.1Zm.005-2.622,0-2.689,2.738.005-.005,2.689Zm0-2.689,0-2.675,2.738,0-.005,2.676Zm0-2.675.005-2.689,2.737.005,0,2.688Zm.005-2.689.005-2.675,2.737,0-.005,2.676Zm0-2.675.005-2.689,2.737,0-.005,2.689Zm.005-2.689,0-2.689,2.737,0,0,2.688Zm0-2.689.005-2.621,2.737,0-.005,2.622Zm5.41,18.737,0,2.648-2.7,0,0-2.649Zm-2.7-.005.005-2.621,2.7,0-.005,2.622Zm.005-2.621.005-2.689,2.7,0L552,440.479Zm0-2.689.005-2.676,2.7.005L552,437.79Zm.005-2.676,0-2.688,2.7,0,0,2.689Zm0-2.688.005-2.676,2.7.005-.005,2.675Zm.005-2.676,0-2.689,2.7.005,0,2.689Zm0-2.689,0-2.688,2.7,0,0,2.689Z" fill="#fff"/>
    <path id="Trazado_24" data-name="Trazado 24" d="M549.3,443.1l0-2.621,2.751,0-.005,2.622Zm0-2.621.005-2.689,2.751,0-.005,2.689Zm0-2.689.005-2.676,2.751.005-.005,2.675Zm.005-2.676,0-2.688,2.751,0,0,2.689Zm0-2.688.005-2.676,2.751.005-.005,2.675Zm.005-2.676,0-2.689,2.751.005,0,2.689Zm0-2.689,0-2.688,2.751,0,0,2.689Zm0-2.688.005-2.622,2.751.005-.005,2.621Zm.005-2.622.005-2.689,2.751,0-.005,2.689Zm5.461,21.358,0,2.649-2.737-.005,0-2.648Zm-2.738,0,.005-2.622,2.737,0,0,2.622Zm.028-21.354.005-2.689,2.737,0-.005,2.689Zm5.461,21.358-.005,2.649-2.751-.005,0-2.648Zm-2.751,0,0-2.622,2.751.005,0,2.622Zm.027-21.353.005-2.689,2.751,0-.005,2.689Zm5.406,21.358-.005,2.648-2.682,0,.005-2.649Zm-2.682,0,0-2.622,2.682.005,0,2.622Zm0-5.31.005-2.676,2.682.005-.005,2.675Zm.005-2.676,0-2.688,2.682,0,0,2.689Zm.009-5.364,0-2.689,2.683.005-.005,2.689Zm0-2.689,0-2.688,2.683,0-.005,2.689Zm.009-5.31.005-2.689,2.682.005-.005,2.688Zm5.406,21.358-.005,2.648-2.751,0,.005-2.648Zm-2.751,0,0-2.622,2.751,0,0,2.622Zm.009-5.311,0-2.675,2.751,0,0,2.676Zm0-2.675,0-2.689,2.751.005,0,2.688Zm.009-5.364.005-2.689,2.75,0,0,2.689Zm.005-2.689,0-2.689,2.751.005,0,2.688Zm0-5.311.005-2.688,2.751,0L563,421.765Zm5.474,21.359,0,2.648-2.751-.005.005-2.648Zm-2.75,0,0-2.622,2.751.005-.005,2.622Zm.009-5.31,0-2.676,2.751.005,0,2.675Zm0-2.676,0-2.688,2.751,0,0,2.689Zm.009-5.364,0-2.689,2.751,0,0,2.689Zm0-2.689,0-2.688,2.751,0-.005,2.689Zm0-5.315.005-2.688,2.751,0-.005,2.689Zm5.461,21.359,0,2.648-2.737-.005,0-2.648Zm-2.738,0,.005-2.622,2.737,0,0,2.622Zm.01-5.315,0-2.676,2.737.005,0,2.675Zm0-2.676,0-2.688,2.737,0,0,2.689Zm.009-5.364,0-2.689,2.738,0-.005,2.689Zm0-2.689.005-2.688,2.737,0,0,2.689Zm.005-5.31.005-2.689,2.737.005-.005,2.688Zm5.461,21.358-.005,2.648-2.751,0,0-2.648Zm-2.751,0,0-2.622,2.751,0,0,2.622Zm.009-5.311,0-2.675,2.751,0,0,2.676Zm0-2.675,0-2.689,2.751,0,0,2.689Zm0-2.689.005-2.675,2.751,0-.005,2.675Zm.005-2.675.005-2.689,2.751,0-.005,2.689Zm.005-2.689,0-2.689,2.751.005,0,2.688Zm0-5.311.005-2.688,2.751,0-.005,2.689Zm5.461,21.358-.005,2.649-2.737-.005.005-2.648Zm-2.737,0,0-2.622,2.737.005,0,2.621Zm0-2.622.005-2.688,2.737,0-.005,2.689Zm.005-2.688,0-2.676,2.737.005,0,2.675Zm0-2.676,0-2.689,2.737.005,0,2.689Zm0-2.689.005-2.675,2.737.005-.005,2.675Zm.005-2.675.005-2.689,2.737,0-.005,2.689Zm.005-2.689,0-2.688,2.737,0,0,2.689Zm0-2.688,0-2.622,2.737,0,0,2.622Zm0-2.622.005-2.689,2.737.005-.005,2.688Zm5.406,21.358-.005,2.648-2.7,0,.005-2.649Zm-2.7,0,0-2.621,2.7,0,0,2.622Zm0-2.621.005-2.689,2.7.005-.005,2.688Zm.014-10.728.005-2.689,2.7,0-.005,2.689Zm.005-2.689,0-2.689,2.7,0,0,2.689Zm0-2.689,0-2.622,2.7,0,0,2.621Z" fill="#fff"/>
    <path id="Trazado_25" data-name="Trazado 25" d="M573.945,443.127l0-2.621,2.751,0,0,2.622Zm0-2.621.005-2.689,2.751.005-.005,2.688Zm.005-2.689,0-2.675,2.751,0,0,2.676Zm0-2.675,0-2.689,2.751,0,0,2.689Zm0-2.689.005-2.675,2.751,0-.005,2.675Zm.005-2.675.005-2.689,2.751,0-.005,2.689Zm.005-2.689,0-2.689,2.751,0,0,2.689Zm0-2.689,0-2.622,2.751,0,0,2.621Zm0-2.626.005-2.689,2.751.005-.005,2.688Zm5.461,21.358-.005,2.648-2.737,0,.005-2.649Zm-2.737,0,0-2.622,2.737.005,0,2.621Zm.027-21.354.005-2.688,2.737,0-.005,2.689Zm5.461,21.358-.005,2.649-2.751-.005.005-2.648Zm-2.751,0,0-2.622,2.751.005,0,2.621Zm.027-21.349.005-2.689,2.751.005-.005,2.688Zm5.406,21.358-.005,2.648-2.682,0,.005-2.649Zm-2.682-.005,0-2.621,2.682,0,0,2.622Zm.009-5.31,0-2.675,2.683,0-.005,2.676Zm0-2.675,0-2.689,2.683,0-.005,2.689Zm.009-5.364,0-2.689,2.682,0-.005,2.689Zm0-2.689,0-2.689,2.682,0,0,2.689Zm0-5.311.005-2.688,2.682,0-.005,2.689Zm5.406,21.358-.005,2.649-2.751-.005.005-2.648Zm-2.751,0,0-2.622,2.751,0,0,2.621Zm.009-5.31.005-2.676,2.751.005-.005,2.675Zm.005-2.676,0-2.689,2.751.005,0,2.689Zm0-5.364.005-2.689,2.751.005-.005,2.689Zm.005-2.689,0-2.689,2.751.005,0,2.689Zm0-5.315.005-2.688,2.751,0-.005,2.689Zm5.475,21.358-.005,2.649-2.751-.005.005-2.648Zm-2.751,0,0-2.621,2.751,0,0,2.622Zm.009-5.314.005-2.676,2.75.005,0,2.675Zm.005-2.676,0-2.689,2.751.005-.005,2.689Zm0-5.364.005-2.689,2.751.005-.005,2.689Zm.005-2.689,0-2.689,2.751.005,0,2.689Zm0-5.31.005-2.689,2.751.005L590.4,421.8ZM593.1,443.15,593.1,445.8l-2.737,0,.005-2.649Zm-2.737-.005,0-2.621,2.737,0,0,2.622Zm.009-5.31,0-2.675,2.738,0-.005,2.676Zm0-2.675.005-2.689,2.737,0,0,2.689Zm.005-5.364.005-2.689,2.737,0-.005,2.689Zm.005-2.689,0-2.689,2.737,0,0,2.689Zm0-5.311.005-2.688,2.737,0-.005,2.689Zm5.461,21.358-.005,2.649L593.1,445.8l.005-2.648Zm-2.751,0,0-2.622,2.751,0,0,2.621Zm.009-5.31.005-2.676,2.751.005-.005,2.675Zm.005-2.676,0-2.689,2.751.005,0,2.689Zm0-2.689,0-2.675,2.751,0,0,2.676Zm0-2.675.005-2.689,2.751.005-.005,2.688Zm.005-2.689,0-2.689,2.751.005,0,2.689Zm0-5.31.005-2.689,2.751.005-.005,2.688Zm5.461,21.358-.005,2.648-2.737,0,.005-2.649Zm-2.737-.005,0-2.621,2.738,0-.005,2.622Zm0-2.621.005-2.689,2.737,0,0,2.689Zm.005-2.689.005-2.675,2.737,0-.005,2.675Zm.005-2.675,0-2.689,2.737,0,0,2.689Zm0-2.689,0-2.676,2.737.005,0,2.675Zm0-2.676.005-2.688,2.737,0-.005,2.689Zm.005-2.688,0-2.689,2.737,0,0,2.689Zm0-2.689.005-2.622,2.737.005-.005,2.621Zm0-2.626.005-2.689,2.737.005-.005,2.688Zm5.41,21.358,0,2.648-2.7,0,.005-2.649Zm-2.7,0,.005-2.622,2.7.005,0,2.621Zm.005-2.626,0-2.689,2.7,0,0,2.689Zm.013-10.729.005-2.688,2.7,0-.005,2.689Zm.005-2.688,0-2.689,2.7,0,0,2.689Zm0-2.689.005-2.622,2.7.005-.005,2.621Z" fill="#fff"/>
    <path id="Trazado_26" data-name="Trazado 26" d="M598.593,443.159l0-2.622,2.751.005,0,2.621Zm0-2.626.005-2.689,2.751,0-.005,2.689Zm.005-2.689.005-2.675,2.751,0,0,2.675Zm.005-2.675,0-2.689,2.751,0,0,2.689Zm0-2.689.005-2.676,2.751.005-.005,2.675Zm0-2.676.005-2.688,2.751,0-.005,2.689Zm.005-2.688,0-2.689,2.751,0,0,2.689Zm0-2.689.005-2.622,2.751.005-.005,2.621Zm0-2.622.005-2.688,2.751,0-.005,2.689Zm5.466,21.358-.005,2.649-2.737-.005,0-2.648Zm-2.742,0,0-2.622,2.738.005-.005,2.621Zm.027-21.349.005-2.689,2.737,0-.005,2.689Zm5.465,21.358,0,2.648-2.751,0,.005-2.649Zm-2.75-.005,0-2.621,2.751,0-.005,2.622Zm.027-21.349.005-2.689,2.751.005-.005,2.689Zm5.406,21.358-.005,2.649-2.682-.005,0-2.648Zm-2.683,0,.005-2.622,2.682.005,0,2.621Zm0-2.622.005-2.689,2.682.005,0,2.689Zm.005-2.689.005-2.675,2.682.005-.005,2.675Zm.005-2.675,0-2.689,2.682,0,0,2.689Zm0-2.689.005-2.675,2.682,0-.005,2.676Zm.009-8.053.005-2.621,2.682,0,0,2.622Zm.005-2.626.005-2.689,2.682.005-.005,2.689Zm5.406,21.358-.005,2.649-2.751-.005.005-2.648Zm-2.751,0,0-2.621,2.751,0,0,2.622Zm0-2.626.005-2.689,2.751.005-.005,2.689Zm0-2.689.005-2.675,2.751.005-.005,2.675Zm.005-2.675,0-2.689,2.751,0,0,2.689Zm.009-8.053.005-2.689,2.75.005,0,2.689Zm.005-2.689,0-2.621,2.751,0-.005,2.622Zm2.728,18.732,0-2.621,2.751,0-.005,2.622Zm0-2.621.005-2.689,2.751,0-.005,2.689Zm0-2.689.005-2.675,2.751,0-.005,2.675Zm.009-8.04.005-2.688,2.751,0-.005,2.689Zm.005-2.688,0-2.689,2.751,0,0,2.689Zm0-2.689.005-2.622,2.751.005,0,2.621Zm.005-2.622.005-2.689,2.751.005-.005,2.689Zm5.461,21.358-.005,2.649-2.737,0,0-2.648Zm-2.738,0,.005-2.622,2.737.005,0,2.621Zm.028-21.349.005-2.689,2.737,0-.005,2.689Zm5.461,21.358,0,2.648-2.751,0,.005-2.649Zm-2.751-.005,0-2.621,2.751,0,0,2.622Zm.027-21.353.005-2.689,2.751,0-.005,2.689Zm5.461,21.358,0,2.648-2.737,0,0-2.649Zm-2.737,0,0-2.622,2.737.005,0,2.621Zm0-2.626.005-2.689,2.737,0-.005,2.689Zm0-2.689.005-2.675,2.737,0-.005,2.675Zm.005-2.675,0-2.689,2.737,0,0,2.689Zm0-2.689.005-2.676,2.737.005-.005,2.675Zm.005-2.676,0-2.688,2.738,0-.005,2.689Zm0-2.688,0-2.689,2.738,0-.005,2.689Zm0-2.689.005-2.622,2.737.005,0,2.621Zm.005-2.622.005-2.689,2.737.005-.005,2.689Zm5.406,21.358-.005,2.649-2.7,0,0-2.648Zm-2.7,0,0-2.622,2.7.005,0,2.621Zm0-2.622.005-2.689,2.7.005-.005,2.689Zm0-2.689.005-2.675,2.7,0-.005,2.676Zm.005-2.675,0-2.689,2.7.005,0,2.688Zm0-2.689.005-2.675,2.7,0-.005,2.676Zm0-2.675.005-2.689,2.7.005-.005,2.688Zm.005-2.689.005-2.689,2.7.005-.005,2.689Zm.005-2.689,0-2.621,2.7,0,0,2.622Z" fill="#fff"/>
    <path id="Trazado_27" data-name="Trazado 27" d="M631.031,443.2l0-2.622,2.751.005,0,2.621Zm0-2.622.005-2.689,2.751.005-.005,2.689Zm.005-2.689.005-2.675,2.751,0-.005,2.676Zm.005-2.675,0-2.689,2.751.005,0,2.688Zm0-2.689,0-2.675,2.751,0,0,2.676Zm0-2.675.005-2.689,2.751,0-.005,2.689Zm.005-2.689,0-2.689,2.751,0,0,2.688Zm0-2.689.005-2.621,2.751,0-.005,2.622Zm0-2.621.005-2.689,2.751,0-.005,2.689Zm5.461,21.358-.005,2.648-2.737,0,.005-2.649Zm-2.737-.005,0-2.621,2.738,0-.005,2.622Zm.027-21.349.005-2.689,2.737,0-.005,2.689Zm5.461,21.358-.005,2.649-2.751-.005.005-2.648Zm-2.751,0,.005-2.622,2.75.005,0,2.621Zm.027-21.349.005-2.689,2.751,0-.005,2.689Zm5.411,21.353,0,2.649-2.682-.005,0-2.648Zm-2.687,0,0-2.621,2.683,0,0,2.622Zm0-2.621.005-2.689,2.682,0,0,2.689Zm.005-2.689.005-2.676,2.682.005-.005,2.675Zm.005-5.369,0-2.675,2.682,0,0,2.676Zm0-2.675.005-2.689,2.682,0-.005,2.689Zm.005-2.689,0-2.689,2.683,0-.005,2.688Zm0-5.31.005-2.689,2.682,0,0,2.689Zm5.411,21.358-.005,2.648-2.751,0,0-2.649Zm-2.751-.005,0-2.621,2.751,0,0,2.622Zm0-2.621,0-2.689,2.751,0,0,2.689Zm0-2.689.005-2.676,2.751.005-.005,2.675Zm.009-5.364.005-2.676,2.751.005-.005,2.675Zm0-2.676.005-2.689,2.751.005-.005,2.689Zm.005-2.689.005-2.688,2.75,0,0,2.689Zm.005-5.31,0-2.689,2.751,0-.005,2.689Zm2.728,18.732,0-2.689,2.751.005-.005,2.689Zm0-2.689.005-2.675,2.751,0-.005,2.676Zm.009-5.364.005-2.675,2.751,0-.005,2.676Zm0-2.675.005-2.689,2.751,0-.005,2.689Zm.005-2.689,0-2.689,2.751.005,0,2.688Zm0-5.31.005-2.689,2.751,0-.005,2.689Zm2.728,18.732.005-2.689,2.737,0,0,2.689Zm.005-2.689.005-2.676,2.737.005-.005,2.675Zm.018-16.043.005-2.689,2.737,0,0,2.689ZM650.2,440.6l0-2.689,2.751,0,0,2.688Zm0-2.689.005-2.675,2.751,0-.005,2.676Zm.005-2.68,0-2.688,2.751,0,0,2.689Zm.014-10.741,0-2.622,2.751,0-.005,2.621Zm0-2.622.005-2.689,2.751.005-.005,2.689Zm2.724,18.732,0-2.689,2.737,0,0,2.688Zm0-2.689.005-2.675,2.737,0-.005,2.676Zm.005-2.675,0-2.689,2.737.005,0,2.688Zm0-2.689.005-2.675,2.737,0-.005,2.676Zm0-2.675.005-2.689,2.737,0-.005,2.689Zm.005-2.689,0-2.689,2.738.005,0,2.688Zm0-2.689.005-2.621,2.737,0,0,2.622Zm2.719,13.422.005-2.676,2.7.005-.005,2.675Zm.005-2.676,0-2.688,2.7,0,0,2.689Zm0-2.688.005-2.676,2.7.005-.005,2.675Zm0-2.676.005-2.689,2.7,0-.005,2.689Zm.005-2.689,0-2.688,2.7,0-.005,2.689Z" fill="#fff"/>
    <path id="Trazado_28" data-name="Trazado 28" d="M655.684,443.226l0-2.622,2.751.005,0,2.622Zm0-2.622,0-2.688,2.751,0,0,2.689Zm0-2.688.005-2.676,2.751.005,0,2.675Zm.005-2.676,0-2.688,2.751,0,0,2.689Zm0-2.688.005-2.676,2.751.005-.005,2.675Zm0-2.676.005-2.689,2.751,0-.005,2.689Zm.005-2.689,0-2.688,2.751,0-.005,2.689Zm0-2.688,0-2.622,2.751,0,0,2.622Zm5.465,18.736-.005,2.648-2.737,0,.005-2.648Zm-2.737,0,0-2.622,2.737,0,0,2.622Zm.023-18.728,0-2.622,2.737,0,0,2.622Zm0-2.626.005-2.689,2.737.005-.005,2.688Zm5.461,21.358,0,2.648-2.751,0,.005-2.648Zm-2.751,0,0-2.622,2.751.005,0,2.622Zm.027-21.354.005-2.688,2.751,0-.005,2.689ZM666.6,443.24l-.005,2.648-2.682-.005,0-2.648Zm-2.682-.005,0-2.622,2.682.005,0,2.622Zm0-2.622.005-2.688,2.682,0-.005,2.689Zm0-2.688.005-2.676,2.682.005-.005,2.675Zm.009-5.365.005-2.675,2.682.005,0,2.675Zm0-2.675.005-2.689,2.682,0,0,2.689Zm.005-2.689.005-2.688,2.682,0-.005,2.689Zm.009-5.31.005-2.689,2.682.005-.005,2.688Zm5.406,21.358-.005,2.648-2.751,0,.005-2.648Zm-2.751,0,0-2.622,2.751,0,0,2.622Zm0-2.622.005-2.689,2.751.005-.005,2.688Zm0-2.689.005-2.675,2.751,0-.005,2.676Zm.01-5.364,0-2.675,2.751,0,0,2.675Zm0-2.675.005-2.689,2.751,0-.005,2.689Zm0-2.689.005-2.689,2.751.005-.005,2.688Zm.009-5.311.005-2.688,2.751,0-.005,2.689Zm2.724,21.354,0-2.622,2.751.005,0,2.621Zm0-2.622.005-2.688,2.751,0-.005,2.689Zm0-2.688.005-2.676,2.751.005-.005,2.675Zm.01-5.365,0-2.675,2.751,0-.005,2.675Zm0-2.675.005-2.689,2.751.005-.005,2.689Zm0-2.689.005-2.688,2.751,0-.005,2.689Zm.009-5.315.005-2.688,2.751,0-.005,2.689Zm5.461,21.358-.005,2.649-2.737-.005.005-2.648Zm-2.737,0,0-2.621,2.737,0,0,2.622Zm.027-21.353.005-2.689,2.737.005-.005,2.688Zm5.461,21.358,0,2.648-2.751,0,.005-2.649Zm-2.751-.005,0-2.621,2.751,0,0,2.622Zm.023-18.727,0-2.622,2.751.005,0,2.621Zm0-2.622.005-2.688,2.751,0-.005,2.689Zm5.461,21.358,0,2.649-2.737-.005,0-2.648Zm-2.737,0,0-2.622,2.738,0-.005,2.621Zm0-2.622.005-2.688,2.737,0,0,2.689Zm0-2.688.005-2.676,2.737.005,0,2.675Zm.005-2.676.005-2.689,2.737.005-.005,2.689Zm.005-2.689,0-2.675,2.737,0,0,2.675Zm0-2.675.005-2.689,2.737.005-.005,2.689Zm0-2.689.005-2.689,2.737.005-.005,2.689Zm.005-2.689,0-2.621,2.737,0,0,2.622Zm5.41,18.737-.005,2.648-2.7,0,0-2.649Zm-2.7-.005.005-2.621,2.7,0,0,2.622Zm.005-2.621,0-2.689,2.7.005-.005,2.688Zm0-2.689,0-2.675,2.7,0-.005,2.676Zm0-2.675.005-2.689,2.7,0-.005,2.689Zm.005-2.689,0-2.675,2.7,0,0,2.675Zm0-2.675.005-2.689,2.7,0-.005,2.689Zm0-2.689.005-2.689,2.7,0-.005,2.689Z" fill="#fff"/>
    <path id="Trazado_29" data-name="Trazado 29" d="M680.332,443.257l0-2.621,2.751,0,0,2.622Zm0-2.621.005-2.689,2.751.005-.005,2.688Zm0-2.689.005-2.675,2.751,0-.005,2.676Zm.005-2.675.005-2.689,2.751,0-.005,2.689Zm.005-2.689,0-2.675,2.751,0,0,2.675Zm0-2.675.005-2.689,2.751,0-.005,2.689Zm0-2.689.005-2.689,2.751,0-.005,2.689Zm.005-2.689,0-2.622,2.751.005,0,2.621Zm0-2.626.005-2.689,2.751.005-.005,2.688Zm5.461,21.358-.005,2.648-2.737,0,.005-2.649Zm-2.737,0,0-2.622,2.738,0-.005,2.621Zm.027-21.354.005-2.688,2.737,0-.005,2.689Zm5.461,21.358-.005,2.649-2.751-.005.005-2.648Zm-2.751,0,.005-2.622,2.75,0,0,2.621Zm.027-21.349.005-2.689,2.751.005-.005,2.688Zm5.406,21.358-.005,2.648-2.682,0,.005-2.649Zm-2.682-.005,0-2.621,2.683,0-.005,2.622Zm0-2.621.005-2.689,2.682,0,0,2.689Zm0-2.689.005-2.675,2.682,0,0,2.675Zm.01-5.364,0-2.675,2.682,0,0,2.675Zm0-2.675.005-2.689,2.682,0-.005,2.689Zm0-2.689.005-2.689,2.682,0-.005,2.689Zm.009-5.311.005-2.688,2.682,0,0,2.689ZM694,443.275,694,445.924l-2.751-.005.005-2.648Zm-2.751,0,.005-2.622,2.751.005,0,2.621Zm.005-2.622,0-2.689,2.751.005,0,2.689Zm0-2.689.005-2.675,2.751.005-.005,2.675Zm.005-5.364,0-2.675,2.751,0,0,2.676Zm0-2.675.005-2.689,2.751.005-.005,2.688Zm.005-2.689.005-2.689,2.75.005,0,2.689Zm.005-5.315,0-2.688,2.751,0-.005,2.689Zm2.728,18.732,0-2.689,2.751.005-.005,2.689Zm0-2.689.005-2.675,2.751.005-.005,2.675Zm.005-5.364,0-2.675,2.751,0,0,2.676Zm0-2.675.005-2.689,2.751.005-.005,2.688Zm.005-2.689,0-2.689,2.751.005,0,2.689Zm0-5.31.005-2.689,2.751.005-.005,2.688Zm2.728,18.732.005-2.689,2.737,0,0,2.689Zm.005-2.689.005-2.675,2.737,0-.005,2.675Zm.018-16.039.005-2.688,2.737,0,0,2.689Zm2.715,18.732,0-2.689,2.751.005,0,2.689Zm0-2.689.005-2.675,2.751.005-.005,2.675Zm0-2.675.005-2.689,2.751,0-.005,2.689Zm.019-10.742,0-2.621,2.751,0-.005,2.622Zm0-2.621,0-2.689,2.751,0-.005,2.689Zm2.728,18.732,0-2.689,2.737,0,0,2.689Zm0-2.689.005-2.675,2.737,0-.005,2.675Zm0-2.675.005-2.689,2.737,0-.005,2.689Zm.005-2.689,0-2.676,2.737.005,0,2.675Zm0-2.676.005-2.688,2.737,0L705,429.939Zm.005-2.688,0-2.689,2.738,0L705,427.25Zm0-2.689.005-2.622,2.737.005,0,2.621Zm2.719,13.417.005-2.675,2.7,0-.005,2.675Zm.005-2.675,0-2.689,2.7,0,0,2.689Zm0-2.689,0-2.676,2.7.005,0,2.675Zm0-2.676.005-2.688,2.7,0-.005,2.689Zm.005-2.688.005-2.689,2.7,0-.005,2.689Z" fill="#fff"/>
    <path id="Trazado_30" data-name="Trazado 30" d="M704.98,443.289l.005-2.622,2.751.005-.005,2.621Zm.005-2.626,0-2.689,2.751,0,0,2.689Zm0-2.689.005-2.675,2.751,0-.005,2.675Zm0-2.675.005-2.689,2.751,0-.005,2.689Zm.005-2.689.005-2.676,2.75.005,0,2.675Zm.005-2.676,0-2.688,2.751,0-.005,2.689Zm0-2.688.005-2.689,2.751,0,0,2.689Zm0-2.689.005-2.622,2.751.005,0,2.621Zm.005-2.622,0-2.689,2.751.005,0,2.689Zm5.46,21.358,0,2.649-2.737,0,0-2.648Zm-2.737,0,.005-2.622,2.737.005-.005,2.621Zm.028-21.349,0-2.689,2.737,0,0,2.689Zm5.46,21.358,0,2.648-2.751,0,0-2.649Zm-2.751-.005.005-2.621,2.751,0-.005,2.622Zm.028-21.349,0-2.689,2.751.005,0,2.689ZM715.9,443.3l0,2.649-2.682,0,0-2.648Zm-2.682,0,.005-2.622,2.682.005L715.9,443.3Zm.009-5.311,0-2.675,2.682,0,0,2.675Zm0-2.675,0-2.689,2.682.005,0,2.689Zm.01-5.364,0-2.689,2.682.005,0,2.688Zm0-2.689.005-2.689,2.682.005-.005,2.689Zm.005-5.315,0-2.689,2.682.005,0,2.689Zm5.4,21.358,0,2.649-2.751,0,0-2.648Zm-2.751,0,.005-2.621,2.751,0-.005,2.622Zm.01-5.315,0-2.675,2.751,0-.005,2.675Zm0-2.675.005-2.689,2.751.005-.005,2.689Zm.005-5.364,0-2.689,2.751.005,0,2.688Zm0-2.689.005-2.689,2.751.005-.005,2.689Zm.005-5.31,0-2.689,2.751,0,0,2.689Zm5.474,21.358,0,2.648-2.751,0,0-2.649Zm-2.751-.005.005-2.621,2.751,0-.005,2.622Zm.009-5.31.005-2.675,2.751,0L721.412,438Zm.005-2.675.005-2.689,2.751,0-.005,2.689Zm.005-5.365,0-2.688,2.751,0,0,2.689Zm0-2.688.005-2.689,2.751,0-.005,2.689Zm.005-5.311,0-2.689,2.751.005,0,2.689Zm5.46,21.358,0,2.649-2.737-.005,0-2.648Zm-2.737,0,.005-2.622,2.737.005-.005,2.621Zm.009-5.311.005-2.675,2.737,0,0,2.676Zm.005-2.675.005-2.689,2.737.005-.005,2.688Zm.005-5.364,0-2.689,2.737.005,0,2.688Zm0-2.689.005-2.689,2.737.005-.005,2.689Zm.005-5.31,0-2.689,2.737,0,0,2.689Zm5.46,21.358,0,2.648-2.751,0,0-2.649Zm-2.751-.005.005-2.621,2.751,0-.005,2.622Zm.01-5.31,0-2.676,2.751,0-.005,2.675Zm0-2.676.005-2.688,2.751,0,0,2.689Zm0-2.688.005-2.676,2.751.005,0,2.675Zm.005-2.676,0-2.688,2.751,0,0,2.689Zm0-2.688.005-2.689,2.751,0-.005,2.689Zm.005-5.315,0-2.689,2.751,0,0,2.689Zm5.46,21.358,0,2.648-2.737,0,0-2.649Zm-2.737,0,.005-2.622,2.737.005-.005,2.621Zm.005-2.626,0-2.689,2.738,0-.005,2.689Zm0-2.689.005-2.676,2.737,0,0,2.675Zm.005-2.676,0-2.688,2.737,0,0,2.689Zm0-2.688,0-2.676,2.737.005,0,2.675Zm0-2.676,0-2.688,2.737,0,0,2.689Zm0-2.688.005-2.689,2.737,0-.005,2.689Zm.005-2.689,0-2.622,2.738.005-.005,2.621Zm0-2.622,0-2.689,2.738.005-.005,2.689Zm5.41,21.358-.005,2.649-2.7-.005.005-2.648Zm-2.7,0,.005-2.622,2.7.005-.005,2.621Zm.005-2.622.005-2.689,2.7.005,0,2.689Zm.014-10.728,0-2.689,2.7,0,0,2.689Zm0-2.689.005-2.689,2.7,0-.005,2.688Zm.005-2.689.005-2.621,2.7,0,0,2.622Z" fill="#fff"/>
    <path id="Trazado_31" data-name="Trazado 31" d="M729.628,443.316l.005-2.622,2.751.005,0,2.621Zm.005-2.622.005-2.689,2.751.005-.005,2.689Zm.005-2.689,0-2.675,2.751,0,0,2.676Zm0-2.675,0-2.689,2.751.005-.005,2.688Zm0-2.689,0-2.675,2.751,0,0,2.676Zm0-2.675,0-2.689,2.751,0,0,2.689Zm0-2.689.005-2.689,2.751,0-.005,2.688Zm.005-2.689.005-2.621,2.75,0,0,2.622Zm0-2.621.005-2.689,2.75,0,0,2.689Zm5.465,21.358,0,2.648-2.738,0,0-2.649Zm-2.742-.005,0-2.621,2.737,0,0,2.622Zm.028-21.349,0-2.689,2.738,0-.005,2.689Zm5.465,21.358-.005,2.649-2.75-.005,0-2.648Zm-2.751,0,.005-2.622,2.751.005-.005,2.621Zm.028-21.354,0-2.689,2.751,0,0,2.689Zm5.405,21.358,0,2.649-2.683-.005.005-2.648Zm-2.682,0,.005-2.621,2.682,0-.005,2.622Zm0-2.626.005-2.689,2.682.005-.005,2.689Zm.005-2.689,0-2.675,2.682,0,0,2.676Zm0-2.675.005-2.689,2.682.005-.005,2.688Zm.005-5.364,0-2.689,2.683,0-.005,2.689Zm0-2.689.005-2.689,2.682.005,0,2.688Zm.01-5.31,0-2.689,2.682,0,0,2.689Zm5.4,21.358-.005,2.648-2.75,0,0-2.649Zm-2.751-.005.005-2.621,2.751,0-.005,2.622Zm0-2.621.005-2.689,2.751,0-.005,2.689Zm.005-2.689,0-2.676,2.751.005,0,2.675Zm0-2.676.005-2.688,2.751,0,0,2.689Zm.005-5.364.005-2.689,2.75.005,0,2.689Zm.005-2.689,0-2.688,2.751,0-.005,2.689Zm.009-5.31,0-2.689,2.751.005,0,2.689Zm2.723,21.354.005-2.622,2.751.005,0,2.621Zm0-2.622.005-2.689,2.751.005,0,2.689Zm.005-2.689,0-2.675,2.751,0,0,2.676Zm0-2.675,0-2.689,2.751.005-.005,2.688Zm0-5.364,0-2.689,2.751,0,0,2.689Zm0-2.689.005-2.689,2.751.005-.005,2.688Zm.01-5.31,0-2.689,2.751,0,0,2.689Zm5.46,21.358,0,2.648-2.738,0,.005-2.649Zm-2.737,0,0-2.621,2.737,0,0,2.622Zm.028-21.353,0-2.689,2.737,0,0,2.689Zm5.46,21.358,0,2.648-2.751,0,0-2.649Zm-2.751,0,0-2.622,2.751,0-.005,2.622Zm.014-10.679.005-2.676,2.75.005,0,2.675Zm.009-8.053.005-2.622,2.751,0-.005,2.621Zm.005-2.622,0-2.689,2.751.005,0,2.689Zm5.46,21.358,0,2.649-2.737-.005,0-2.648Zm-2.737,0,.005-2.622,2.737,0-.005,2.622Zm.005-2.622,0-2.689,2.737,0,0,2.688Zm0-2.689,0-2.675,2.737,0,0,2.676Zm0-2.675.005-2.689,2.737.005-.005,2.688Zm.005-2.689,0-2.675,2.738,0-.005,2.676Zm0-2.675,0-2.689,2.738,0L754.295,430Zm0-2.689.005-2.689,2.737.005,0,2.688Zm.005-2.689.005-2.621,2.737,0-.005,2.622Zm5.41,18.737,0,2.648-2.7,0,0-2.649Zm-2.7-.005.005-2.622,2.7.005-.005,2.622Zm.005-2.622,0-2.688,2.7,0,0,2.689Zm0-2.688,0-2.676,2.7.005,0,2.675Zm0-2.676.005-2.688,2.7,0-.005,2.689Zm.005-2.688L754.3,430,757,430l0,2.675ZM754.3,430l0-2.689,2.7,0L757,430Zm0-2.689,0-2.688,2.7,0,0,2.689Z" fill="#fff"/>
  </g>
</svg>
