<svg xmlns="http://www.w3.org/2000/svg" width="37" height="31.186" viewBox="0 0 37 31.186">
  <path id="menu" d="M36.989,49.66,36.983,47.3l-.006-2.416-.006-2.4-3.337,0v-.016h.011l-.006-2.416L33.635,37.7l-.006-2.416-.006-2.367h.006l3.337,0L36.96,30.5l-.006-2.355-.006-2.416-.006-2.4-3.326,0-.006-2.416-3.3,0-3.388,0-3.371,0-3.388,0-3.371,0-3.388,0-3.388,0-3.3,0-3.388,0,.006,2.416.006,2.4.006,2.416L3.348,30.5,0,30.5l.006,2.416.006,2.4.006,2.416.006,2.355,3.388,0V40.1H3.348l.006,2.416.006,2.4.006,2.416.006,2.355,3.388,0L6.764,52.1l3.3,0,3.388,0,3.388,0,3.371,0,3.388,0,3.371,0,3.388,0,3.3,0,3.337,0Zm-30.27-23.9-.006-2.4,3.3,0,3.388,0,3.388,0,3.371,0,3.388,0,3.371,0,3.388,0,.006,2.4.006,2.416-3.388,0-3.371,0-3.388,0-3.371,0-3.388,0-3.388,0-3.3,0ZM3.4,37.727l-.006-2.416-.006-2.4,3.3,0h.034v.04l3.3,0,3.388,0,3.388,0,3.371,0,3.388,0,3.371,0h.045l.006,2.367.006,2.416-3.388,0-3.371,0-3.388,0-3.371,0-3.388,0-3.388,0Zm3.343,9.606-.006-2.416-.006-2.4,3.3,0,3.388,0,3.388,0,3.371,0,3.388,0,3.371,0,3.388,0,.006,2.4.006,2.416-3.388,0-3.371,0-3.388,0-3.371,0-3.388,0-3.388,0Z" transform="translate(0 -20.914)" fill="#fff"/>
</svg>
