<svg xmlns="http://www.w3.org/2000/svg" width="144.124" height="65.067" viewBox="0 0 144.124 65.067">
  <g id="ok" transform="translate(-3671 -1083.933)">
    <g id="Grupo_1" data-name="Grupo 1" transform="translate(3191 680)">
      <path id="Trazado_2" data-name="Trazado 2" d="M612.517,457.836v-.01l5.422.008v.01Zm0,11.156,5.4.008.011-5.6v-.009l6.132.009.011-5.554.01-5.7.01-5.668.011-5.7h-.011l.011-5.668.01-5.7.011-5.7-6.133-.01h-.01l.01-5.554-5.474-.008V412.4H492.662v.01l-6.235-.009-.01,5.7-6.364-.009-.011,5.554-.01,5.7h.01l-.01,5.7-.011,5.669-.01,5.706L480,452.081h.011l-.011,5.7,6.364.009-.011,5.545,6.309.009V469H612.517ZM486.331,452.081h-6.32l6.32.009Zm131.618-5.612h.011l.01-5.7h-.01Z" fill="#456b15" fill-rule="evenodd"/>
      <path id="Trazado_3" data-name="Trazado 3" d="M480,449.374l.011-5.7,6.32.01v-.01H480l.011-5.668.01-5.706.011-5.668.01-5.7h-.01l.01-5.7.011-5.554,6.364.01.011-5.7,6.234.009V404l69.925-.067h44.328v5.745l5.474.009-.011,5.554h.011l6.133.009-.011,5.7-.01,5.7-.011,5.668h.011l-.011,5.7-.01,5.669-.011,5.7-.01,5.555-6.133-.01v.01l-.01,5.6-5.4-.008v.008h-.826L537,460.6H492.662v-5.658l-6.309-.01.011-5.545Zm126.915-.009,5.422.008v-.009l-5.422-.008ZM612.347,438h.011l.01-5.7h-.01Z" fill="#8ec440" fill-rule="evenodd"/>
    </g>
    <g id="Grupo_2" data-name="Grupo 2" transform="translate(3709.803 1095.559)">
      <path id="Trazado_14" data-name="Trazado 14" d="M.2,25.544.2,22.393,3.35,22.4l-.005,3.152ZM.2,22.393l.005-3.136,3.148.005L3.35,22.4Zm0-3.136L.207,16.1l3.148.005L3.35,19.262ZM.207,16.1l.005-3.136,3.148.005L3.355,16.11Zm.005-3.136L.218,9.818l3.148.005-.005,3.152ZM.218,9.818.223,6.666l3.148.005L3.366,9.823Zm0-3.152L.223,3.593,3.371,3.6,3.366,6.671ZM3.34,28.622l.005-3.073,3.132.005-.005,3.073Zm.005-3.073L3.35,22.4l3.132.005-.005,3.152ZM3.366,6.666l.005-3.073L6.5,3.6V6.671Zm.005-3.073L3.376.441,6.509.447,6.5,3.6ZM9.62,28.628l-.005,3.1-3.148-.005.005-3.1Zm-3.148-.005.005-3.073,3.148.005L9.62,28.628ZM6.5,3.6,6.509.447,9.657.452,9.651,3.6Zm6.186,25.034-.005,3.1-3.069-.005.005-3.1ZM9.62,28.628l.005-3.073,3.069.005-.005,3.073ZM9.63,22.4l.005-3.136,3.069.005L12.7,22.408Zm.005-3.136.005-3.152,3.069.005L12.7,19.272Zm0-3.152.005-3.136,3.069.005L12.7,16.121Zm.005-3.136.005-3.152,3.069.005-.005,3.152Zm.005-3.152.005-3.152,3.069.005-.005,3.152ZM9.651,3.6,9.657.452l3.069.005-.005,3.152Zm6.186,25.034-.005,3.1-3.148-.005.005-3.1Zm-3.148-.005.005-3.073,3.148.005-.005,3.073Zm.01-6.224.005-3.136,3.148.005-.005,3.136Zm.005-3.136.005-3.152,3.148.005-.005,3.152Zm0-3.152.005-3.136,3.148.005-.005,3.136Zm.005-3.136.005-3.152,3.148.005-.005,3.152Zm.005-3.152.005-3.152,3.148.005-.005,3.152Zm.005-6.224L12.726.457l3.148.005-.005,3.152Zm6.265,25.029-.005,3.1-3.148-.005.005-3.1Zm-3.148,0,.005-3.073,3.148.005-.005,3.073Zm.01-6.23.005-3.136L19,19.278,19,22.414Zm.005-3.136.005-3.152,3.148.005L19,19.278Zm0-3.152.005-3.136,3.148.005L19,16.126Zm.005-3.136.005-3.152,3.148.005-.005,3.152Zm.005-3.152.005-3.152,3.148.005-.005,3.152Zm.005-6.224L15.874.457l3.148.005-.005,3.152Zm6.254,25.034-.005,3.1-3.132-.005.005-3.1Zm-3.138-.005.005-3.073,3.132.005-.005,3.073Zm.031-25.024L19.022.462l3.132.005-.005,3.152Zm6.254,25.035-.005,3.1-3.148-.005.005-3.1Zm-3.148-.005.005-3.073,3.148.005-.005,3.073Zm0-3.073.005-3.152,3.148.005-.005,3.152Zm.026-18.878.005-3.073,3.148.005L25.3,6.7Zm0-3.073L22.154.468,25.3.473,25.3,3.625ZM28.4,28.654l-.005,3.1-3.132-.005.005-3.1Zm-3.132-.005.005-3.073,3.132.005L28.4,28.654Zm0-3.073.005-3.152,3.132.005L28.4,25.581Zm.005-3.152.005-3.136,3.132.005-.005,3.136Zm.005-3.136.005-3.152,3.132.005-.005,3.152Zm.005-3.152L25.292,13l3.132.005-.005,3.136Zm0-3.136.005-3.152,3.132.005-.005,3.152Zm.005-3.152L25.3,6.7,28.43,6.7l-.005,3.152ZM25.3,6.7,25.3,3.625l3.132.005L28.43,6.7ZM28.4,28.654l.005-3.073,3.085.005-.005,3.073Zm0-3.073.005-3.152,3.085.005-.005,3.152Zm.005-3.152.005-3.136L31.5,19.3l-.005,3.131Zm.005-3.141.005-3.152,3.085.005L31.5,19.293Zm.005-3.152L28.424,13l3.085.005L31.5,16.142Zm0-3.136.005-3.152,3.085.005L31.5,13.006Zm.005-3.152L28.43,6.7l3.085.005-.005,3.152Z" fill="#fff"/>
      <path id="Trazado_15" data-name="Trazado 15" d="M28.4,28.654l.005-3.073,3.148.005-.005,3.073Zm0-3.073.005-3.152,3.148.005-.005,3.152Zm.005-3.152.005-3.136,3.148.005-.005,3.131Zm.005-3.141.005-3.152,3.148.005-.005,3.152Zm.005-3.152L28.424,13l3.148.005-.005,3.136Zm0-3.136.005-3.152,3.148.005-.005,3.152Zm.005-3.152L28.43,6.7l3.148.005-.005,3.152ZM28.43,6.7l.005-3.073,3.148.005L31.578,6.7Zm.005-3.073L28.44.473l3.148.005L31.583,3.63Zm6.249,25.035-.005,3.1-3.132-.005.005-3.1Zm-3.132-.005.005-3.073,3.132.005-.005,3.073ZM31.583,3.63,31.588.478l3.132.005-.005,3.152Zm6.249,25.034-.005,3.1-3.148-.005.005-3.1Zm-3.148-.005.005-3.073,3.148.005-.005,3.073Zm.032-25.024L34.721.484l3.148.005L37.863,3.64ZM40.9,28.67l-.005,3.1-3.069-.005.005-3.1Zm-3.069-.005.005-3.073,3.069.005L40.9,28.67Zm0-3.073.005-3.152,3.069.005L40.9,25.6Zm.005-3.152.005-3.136,3.069.005-.005,3.136Zm.005-3.136.005-3.152,3.069.005-.005,3.152Zm.005-6.288.005-3.152,3.069.005-.005,3.152Zm.005-3.152.005-3.152,3.069.005L40.922,9.87Zm.005-3.152.005-3.073,3.069.005-.005,3.073Zm.005-3.078L37.869.484l3.069.005L40.933,3.64ZM44.049,28.67l-.005,3.1L40.9,31.769l.005-3.1Zm-3.148,0,.005-3.073,3.148.005-.005,3.073Zm0-3.078.005-3.152,3.148.005L44.049,25.6Zm.005-3.152.005-3.136,3.148.005-.005,3.136Zm.016-12.575.005-3.152,3.148.005L44.07,9.87Zm.005-3.152.005-3.073,3.148.005-.005,3.073ZM44.049,28.67l.005-3.073L47.2,25.6,47.2,28.675Zm0-3.073.005-3.152,3.148.005L47.2,25.6Zm.016-9.439.005-3.136,3.148.005-.005,3.136Zm.011-9.439.005-3.073,3.148.005-.005,3.073Zm.005-3.073L44.086.494,47.234.5l-.005,3.152ZM50.33,28.68l-.005,3.1-3.132-.005.005-3.1ZM47.2,28.675,47.2,25.6l3.132.005L50.33,28.68Zm.011-9.36.005-3.152,3.132.005L50.34,19.32Zm.005-3.152.005-3.136,3.132.005-.005,3.136Zm0-3.136.005-3.152,3.132.005-.005,3.152Zm.016-9.376L47.234.5h3.132l-.005,3.152Zm6.249,25.034-.005,3.1-3.148-.005.005-3.1ZM50.33,28.68l.005-3.073,3.148.005-.005,3.073Zm.005-6.225.005-3.136,3.148.005-.005,3.136Zm.005-3.136.005-3.152,3.148.005-.005,3.152Zm.005-3.152.005-3.136,3.148.005-.005,3.136Zm0-3.136.005-3.152,3.148.005-.005,3.152Zm.005-3.152.005-3.152,3.148.005L53.5,9.886Zm.01-6.23L50.366.5,53.514.5l-.005,3.152ZM56.61,28.685l-.005,3.1-3.132-.005.005-3.1Zm-3.132,0,.005-3.073,3.132.005-.005,3.073Zm.005-3.078.005-3.152,3.132.005-.005,3.152Zm0-3.152.005-3.136,3.132.005-.005,3.136Zm.01-6.288.005-3.136,3.132.005-.005,3.136Zm0-3.136L53.5,9.881l3.132.005-.005,3.152ZM53.5,9.881,53.5,6.729l3.132.005-.005,3.152ZM53.5,6.729l.005-3.073,3.132.005-.005,3.073Zm.005-3.073L53.514.5,56.647.51l-.005,3.152ZM59.7,28.691l-.005,3.1L56.6,31.79l.005-3.1Zm-3.085-.005.005-3.073,3.085.005L59.7,28.691Zm.005-3.073.005-3.152,3.085.005L59.7,25.618Zm.016-12.575.005-3.152,3.085.005-.005,3.152Zm0-3.152.005-3.152,3.085.005-.005,3.152Zm.005-3.152.005-3.073,3.085.005L59.721,6.74Z" fill="#fff"/>
    </g>
  </g>
</svg>
