<svg xmlns="http://www.w3.org/2000/svg" width="21.408" height="22.471" viewBox="0 0 21.408 22.471">
  <path id="redarrow" d="M1.35.264A1.052,1.052,0,0,0,.6.539a.894.894,0,0,0-.3.692L.287,21.954a.982.982,0,0,0,.276.486,1.042,1.042,0,0,0,.758.291l9.808.005a1.035,1.035,0,0,0,.735-.291.887.887,0,0,0,.316-.676V19.929h2.178a1.035,1.035,0,0,0,.735-.291.887.887,0,0,0,.316-.677v-2h2.178a1.019,1.019,0,0,0,.753-.291.9.9,0,0,0,.3-.676v-2h2a1.02,1.02,0,0,0,.753-.291.944.944,0,0,0,.3-.708l.006-2.775a.955.955,0,0,0-.3-.713,1.028,1.028,0,0,0-.753-.291H18.466V7.177A.879.879,0,0,0,18.15,6.5a1.045,1.045,0,0,0-.735-.291H15.237v-2a.879.879,0,0,0-.316-.676,1.068,1.068,0,0,0-.735-.291H11.974v-2a.886.886,0,0,0-.3-.692A1.061,1.061,0,0,0,10.922.27Z" transform="translate(-0.287 -0.264)" fill="#a50000"/>
</svg>
