<svg id="wpokt-logo" xmlns="http://www.w3.org/2000/svg" width="253" height="47" viewBox="0 0 253 47">
  <path id="Trazado_11" data-name="Trazado 11" d="M42.867,42.1l.008-4.592,4.689.008-.008,4.592Zm0-4.592.008-4.709,4.689.008-.008,4.709Zm.008-4.709.008-4.686,4.689.008-.008,4.686Zm.008-4.686.008-4.709,4.689.008-.008,4.709Zm.008-4.709L42.9,18.72l4.689.008-.008,4.686Zm0-4.686L42.9,14.01l4.689.008-.008,4.709ZM42.9,14.01,42.907,9.3l4.689.008-.008,4.709ZM42.907,9.3l.008-4.592,4.689.008L47.6,9.309Zm.008-4.592L42.922,0l4.689.008L47.6,4.717Zm9.308,37.408-.008,4.639-4.666-.008.008-4.639Zm-4.666-.008.008-4.592,4.666.008-.008,4.592ZM47.6,4.717,47.611.008l4.666.008-.008,4.709Zm9.308,37.409L56.9,46.764l-4.689-.008.008-4.639Zm-4.689-.008.008-4.592,4.689.008-.008,4.592Zm.047-37.393L52.277.016l4.689.008-.008,4.709Zm9.214,37.4-.008,4.639L56.9,46.757l.008-4.639Zm-4.572,0,.008-4.592,4.572.008-.008,4.592Zm0-4.592.008-4.709,4.572.008-.008,4.709Zm.023-14.113.008-4.686,4.572.008-.008,4.686Zm0-4.686.008-4.709,4.572.008-.008,4.709Zm.008-4.709.008-4.709,4.572.008-.008,4.709Zm.008-4.709.008-4.592,4.572.008-.008,4.592Zm.008-4.592L56.966.016l4.572.008-.008,4.709Zm9.214,37.408-.008,4.639-4.689-.008.008-4.639Zm-4.689-.008.008-4.592,4.689.008-.008,4.592Zm.008-4.592.008-4.709,4.689.008-.008,4.709Zm0-4.709.008-4.686,4.689.008-.008,4.686Zm.023-14.081.008-4.709,4.689.008L66.2,18.751Zm0-4.709.008-4.709,4.689.008L66.2,14.042Zm.008-4.709.008-4.592,4.689.008-.008,4.592Zm4.65,32.809.008-4.592,4.689.008-.008,4.592Zm.008-4.592.008-4.709,4.689.008L70.87,37.55Zm.016-14.1.008-4.686,4.689.008-.008,4.686Zm.008-4.686.008-4.709,4.689.008-.008,4.709Zm0-4.709.008-4.709L70.9,9.34l-.008,4.709Zm.008-4.709.008-4.592,4.689.008L70.9,9.34Zm.008-4.592L66.228.031l4.689.008-.008,4.709Zm9.308,37.408-.008,4.639-4.666-.008.008-4.639Zm-4.666-.008.008-4.592,4.666.008-.008,4.592Zm.047-37.4L70.917.031l4.666.008-.008,4.709Zm9.308,37.416L80.209,46.8l-4.689-.008.008-4.639Zm-4.689-.008.008-4.592,4.689.008-.008,4.592Zm.047-37.4L75.583.039l4.689.008-.008,4.709Zm9.308,37.409L84.875,46.8l-4.666-.008.008-4.639Zm-4.666,0,.008-4.592,4.666.008-.008,4.592Zm.008-4.6.008-4.709,4.666.008-.008,4.709Zm0-4.709.008-4.686,4.666.008-.008,4.686Zm.008-4.686.008-4.709,4.666.008L84.9,28.17Zm.008-4.709.008-4.686,4.666.008-.008,4.686Zm.008-4.686.008-4.709,4.666.008-.008,4.709Zm0-4.709.008-4.709,4.666.008-.008,4.709Zm.008-4.709.008-4.592,4.666.008-.008,4.592Zm.008-4.592L80.272.047l4.666.008L84.93,4.764Zm9.214,37.408L89.471,46.8l-4.6-.008.008-4.639Zm-4.6-.008.008-4.592,4.6.008-.008,4.592Zm.008-4.592.008-4.709,4.6.008-.008,4.709Zm0-4.709L84.9,28.17l4.6.008-.008,4.686ZM84.9,28.17l.008-4.709,4.6.008-.008,4.709Zm.008-4.709.008-4.686,4.6.008L89.5,23.469Zm.008-4.686.008-4.709,4.6.008-.008,4.709Zm0-4.709.008-4.709,4.6.008-.008,4.709Zm.008-4.709.008-4.592,4.6.008-.008,4.592Z" fill="#fff"/>
  <path id="Trazado_12" data-name="Trazado 12" d="M84.883,42.157l.008-4.592,4.689.008-.008,4.592Zm.008-4.592.008-4.709,4.689.008-.008,4.709Zm0-4.709L84.9,28.17l4.689.008-.008,4.686ZM84.9,28.17l.008-4.71,4.689.008-.008,4.709Zm.008-4.71.008-4.686,4.689.008L89.6,23.469Zm.008-4.686.008-4.709,4.689.008L89.6,18.783Zm0-4.709.008-4.709,4.689.008L89.6,14.073Zm.008-4.709.008-4.592,4.689.008-.008,4.592Zm.008-4.592L84.938.055l4.689.008-.008,4.709Zm9.308,37.408-.008,4.639L89.564,46.8l.008-4.639Zm-4.666-.008.008-4.592,4.666.008-.008,4.592Zm.047-37.393L89.627.063l4.666.008L94.285,4.78Zm9.308,37.4-.008,4.639L94.23,46.8l.008-4.639Zm-4.689,0,.008-4.592,4.689.008-.008,4.592Zm.047-37.4L94.293.063l4.689.008L98.974,4.78ZM103.5,42.181l-.007,4.639-4.572-.008.008-4.639Zm-4.572-.008.008-4.592,4.572.008-.008,4.592Zm.008-4.592.008-4.709,4.572.008-.008,4.709Zm0-4.709.008-4.686,4.572.008-.008,4.686Zm.016-9.4.008-4.686,4.572.008-.008,4.686Zm.008-4.686.008-4.709,4.572.008-.007,4.709Zm0-4.709.008-4.709,4.572.008-.007,4.709Zm.016-9.3L98.982.071l4.572.008-.008,4.709Zm9.215,37.408-.008,4.639-4.689-.008.007-4.639Zm-4.69-.008.008-4.592,4.689.008-.007,4.592Zm.008-4.592.008-4.709,4.689.008L108.2,37.6Zm.008-4.709.008-4.686,4.689.008-.008,4.686Zm.008-9.4.008-4.686,4.689.008-.008,4.686Zm.008-4.686.007-4.709,4.69.008-.008,4.709Zm.007-4.709.008-4.709,4.689.008-.007,4.709Zm.008-9.3.008-4.709,4.689.008L108.235,4.8ZM108.2,37.6l.008-4.709,4.689.008-.007,4.709Zm.008-4.709.008-4.686,4.689.008-.008,4.686Zm.008-9.4.008-4.686,4.689.008L112.9,23.5Zm.008-4.686.008-4.709,4.689.008-.008,4.709Zm.008-4.709.007-4.709,4.69.008-.008,4.709Zm.007-9.309.008-4.709,4.69.008L112.925,4.8ZM112.886,37.6l.007-4.709,4.666.008-.008,4.709Zm.007-4.709.008-4.686,4.666.008-.008,4.686Zm.032-28.1.008-4.709L117.6.094,117.59,4.8ZM117.551,37.6l.008-4.709,4.689.008-.007,4.709Zm.008-4.709.008-4.686,4.689.008-.008,4.686Zm0-4.686.008-4.709,4.689.008-.008,4.71ZM117.583,9.4,117.59,4.8l4.69.008L122.272,9.4ZM117.59,4.8,117.6.094l4.69.008-.008,4.709Zm4.651,32.809.007-4.709,4.666.008-.008,4.709Zm.007-4.709.008-4.686,4.666.008-.008,4.686Zm0-4.686.008-4.71,4.666.008-.008,4.709Zm.008-4.71.008-4.686,4.666.008-.008,4.686Zm.008-4.686.008-4.71,4.666.008-.008,4.709Zm.008-4.71L122.28,9.4l4.666.008-.008,4.709Zm0-4.709.008-4.592,4.666.008-.008,4.592Zm4.642,23.508.008-4.686,4.6.008-.008,4.686Zm0-4.686.008-4.709,4.6.008-.008,4.709Zm.008-4.709.008-4.686,4.595.008-.007,4.686Zm.008-4.686.008-4.709,4.6.008-.008,4.71Zm.008-4.709.008-4.709,4.6.008-.008,4.709Z" fill="#fff"/>
  <path id="Trazado_13" data-name="Trazado 13" d="M126.906,37.62l.008-4.709,4.69.008-.008,4.709Zm.008-4.709.008-4.686,4.689.008-.007,4.686Zm0-4.686.008-4.709,4.689.008-.007,4.709Zm.008-4.709.008-4.686,4.689.008-.008,4.686Zm.008-4.686.008-4.709,4.689.008-.008,4.71Zm.008-4.709.008-4.709,4.689.008-.008,4.709Zm0-4.709.008-4.592,4.689.008-.008,4.592Zm4.65,32.809.008-4.592,4.666.008-.008,4.592Zm.008-4.592.008-4.709,4.665.008-.007,4.709Zm.031-28.217.008-4.592,4.666.008V9.419Zm.008-4.592L131.643.11l4.665.008L136.3,4.827Zm9.308,37.409-.008,4.639-4.689-.008.008-4.639Zm-4.689-.008.008-4.592,4.689.008-.008,4.592ZM136.3,4.827l.007-4.709L141,.126l-.008,4.709Zm9.214,37.408-.008,4.639-4.572-.008.008-4.639Zm-4.572-.008.008-4.592,4.572.008-.008,4.592Zm.016-9.3.007-4.686,4.572.008-.007,4.686Zm.007-4.686.008-4.709,4.572.008-.008,4.709Zm0-4.709.008-4.686,4.572.008-.008,4.686Zm.008-4.686.008-4.709,4.572.008-.008,4.709Zm.008-4.709.008-4.709,4.572.008-.008,4.709Zm.008-9.3L141,.126l4.572.008-.008,4.709ZM150.2,42.243l-.008,4.639-4.689-.008.008-4.639Zm-4.689-.008.008-4.592,4.689.008-.008,4.592Zm.016-9.3.007-4.686,4.69.008-.008,4.686Zm.007-4.686.008-4.709,4.689.008-.007,4.709Zm0-4.709.008-4.686,4.689.008-.007,4.686Zm.008-4.686.008-4.709,4.689.008-.008,4.709Zm.008-4.709.008-4.709,4.689.008-.008,4.709Zm.008-9.3L145.57.133l4.689.008-.008,4.709Zm9.331,37.4-.007,4.639-4.69-.008.008-4.639Zm-4.689,0,.008-4.592,4.689.008-.008,4.592Zm.016-9.309.008-4.686,4.689.008-.008,4.686Zm.008-4.686.007-4.709,4.69.008-.008,4.709Zm0-4.709.007-4.686,4.69.008-.008,4.686Zm.007-4.686.008-4.709,4.69.008-.008,4.709Zm.008-4.709.008-4.709,4.689.008-.007,4.709Zm.008-9.3.008-4.709,4.689.008-.008,4.709Zm9.316,37.408-.008,4.639-4.666-.008.008-4.639Zm-4.674-.008.008-4.592,4.666.008-.008,4.592Zm.047-37.393.008-4.709,4.666.008-.008,4.709Zm9.316,37.409-.008,4.639-4.689-.008.008-4.639Zm-4.689-.008.008-4.592,4.689.008-.008,4.592Zm0-4.592.008-4.709,4.689.008-.008,4.709Zm.039-28.209.008-4.592,4.689.008-.008,4.592Zm0-4.592.008-4.709L164.3.157l-.008,4.709Zm9.316,37.408-.008,4.639-4.666-.008.008-4.639Zm-4.666-.008.008-4.592,4.666.008-.008,4.592Zm0-4.592.008-4.709,4.666.008-.008,4.709Zm.008-4.709.008-4.686,4.666.008-.008,4.686Zm.008-4.686.008-4.709,4.666.008-.008,4.709Zm.008-4.709.008-4.686,4.665.008-.007,4.686Zm0-4.686.008-4.709,4.665.008-.007,4.709Zm.008-4.709.007-4.709,4.666.008-.008,4.709Zm.007-4.709.008-4.592,4.666.008-.008,4.592Zm4.627,32.809.008-4.592,4.6.008-.007,4.592Zm0-4.592.008-4.709,4.6.008-.007,4.709Zm.008-4.709.008-4.686,4.6.008-.008,4.678Zm.008-4.694.008-4.709,4.6.008-.008,4.709Zm.008-4.709.007-4.686,4.6.008-.008,4.686Zm0-4.686.007-4.709,4.6.008-.008,4.709Zm.007-4.709.008-4.709,4.6.008-.008,4.709Z" fill="#fff"/>
  <path id="Trazado_14" data-name="Trazado 14" d="M168.922,42.267l.008-4.592,4.689.008-.008,4.592Zm0-4.592.008-4.709,4.689.008-.008,4.709Zm.008-4.709.008-4.686,4.689.008-.008,4.678Zm.008-4.694.007-4.709,4.69.008-.008,4.709Zm.007-4.709.008-4.686,4.689.008-.007,4.686Zm0-4.686.008-4.709,4.689.008-.007,4.709Zm.008-4.709.008-4.709,4.689.008-.008,4.709Zm.008-4.709.008-4.592,4.689.008-.008,4.592Zm.008-4.592.008-4.709,4.689.008-.008,4.709Zm9.308,37.408-.008,4.639-4.666-.008.008-4.639Zm-4.666-.008.008-4.592,4.666.008-.008,4.592Zm.047-37.393.008-4.709,4.666.008-.008,4.709Zm9.308,37.408-.008,4.639-4.689-.008.008-4.639Zm-4.689-.008.008-4.592,4.689.008-.008,4.592Zm.047-37.393.008-4.709,4.689.008-.008,4.709Zm9.214,37.408-.008,4.639-4.572-.008.008-4.639Zm-4.572-.008.008-4.592,4.572.008-.008,4.592Zm0-4.592.008-4.709,4.572.008-.008,4.709Zm.008-4.709.008-4.686,4.572.008-.008,4.686Zm.008-4.686.008-4.709,4.572.008-.008,4.709Zm.008-9.4L183,14.191l4.572.008-.007,4.709ZM183,14.191l.008-4.709,4.572.008-.008,4.709Zm.008-4.709.008-4.592,4.572.008-.008,4.592Zm.008-4.6.008-4.709,4.572.008-.008,4.709Zm9.214,37.408-.007,4.639-4.69-.008.008-4.639Zm-4.689,0,.008-4.592,4.689.008-.008,4.592Zm0-4.6.008-4.709,4.689.008-.008,4.709Zm.008-4.709.008-4.686,4.689.008-.008,4.686Zm.023-18.791.008-4.709,4.689.008-.007,4.709Zm.008-4.709.008-4.592,4.689.008-.008,4.592Zm4.65,32.809.008-4.592,4.689.008-.007,4.592Zm0-4.592.008-4.709,4.689.008-.007,4.709Zm.024-14.1.008-4.686,4.689.008L196.94,23.6Zm.015-14.1.008-4.592,4.69.008L196.956,9.5Zm.008-4.592.008-4.709L196.971.2l-.007,4.709Zm9.308,37.409-.007,4.639-4.666-.008.008-4.639Zm-4.665-.008.007-4.592,4.666.008-.008,4.592Zm.015-13.987.008-4.71,4.666.008-.008,4.709Zm.008-4.71.008-4.686,4.666.008-.008,4.686Zm0-4.686.008-4.71,4.666.008-.008,4.709Zm.024-14.011L196.971.2h4.666l-.008,4.709Zm9.308,37.408-.008,4.639-4.689-.008.007-4.639Zm-4.69-.008.008-4.592,4.689.008-.007,4.592Zm.008-9.3.008-4.686,4.689.008-.008,4.686Zm.008-4.686.008-4.709,4.689.008-.008,4.709Zm.008-4.709.008-4.686,4.689.008-.008,4.686Zm0-4.686.008-4.709,4.689.008-.008,4.71Zm.008-4.709.008-4.709,4.689.008-.008,4.709Zm.015-9.309L201.637.2,206.326.2l-.007,4.709Zm9.308,37.408-.007,4.639-4.666-.008.008-4.639Zm-4.665,0,.007-4.592,4.666.008-.008,4.592Zm.007-4.6.008-4.709,4.666.008-.008,4.709Zm0-4.709.008-4.686,4.666.008-.008,4.686Zm.016-9.4.008-4.686,4.666.008-.008,4.686Zm0-4.686.008-4.709,4.666.008-.008,4.71Zm.008-4.709.008-4.709,4.666.008-.008,4.709Zm.008-4.709.008-4.592,4.665.008-.007,4.592Zm.008-4.592L206.326.2l4.666.008-.008,4.709Zm9.214,37.408-.008,4.639-4.6-.008.007-4.639Zm-4.6-.008.008-4.592,4.6.008-.008,4.592Zm.008-4.592.008-4.709,4.6.008-.008,4.709Zm.024-18.791.008-4.71,4.6.008-.008,4.709Zm0-4.71.008-4.709,4.6.008-.008,4.709Zm.008-4.709.007-4.592,4.6.008-.008,4.592Z" fill="#fff"/>
  <path id="Trazado_15" data-name="Trazado 15" d="M210.969,14.222l.008-4.709,4.689.008-.008,4.709Zm.008-4.709.007-4.592,4.69.008-.008,4.592Zm.007-4.592.008-4.709,4.689.008-.007,4.709Zm4.674,9.309.008-4.709,4.666.008-.008,4.709Zm.016-9.3L215.681.22l4.666.008-.008,4.709Zm4.619,37.4.007-4.592,4.69.008-.008,4.592Zm.007-4.592.008-4.709,4.689.008-.007,4.709Zm0-4.709.008-4.686,4.689.008-.007,4.686Zm.008-4.686.008-4.709,4.689.008L225,28.351Zm.008-4.709.008-4.686,4.689.008-.008,4.686Zm.008-4.686.008-4.709,4.689.008-.008,4.709Zm0-4.709.008-4.709,4.689.008-.008,4.709Zm.015-9.309L220.347.22l4.689.008-.007,4.709Zm9.215,37.409-.008,4.639-4.572-.008.008-4.639Zm-4.572,0,.008-4.592,4.572.008-.008,4.592Zm.047-37.4.007-4.709,4.572.008L229.6,4.945Zm9.214,37.408-.008,4.639-4.689-.008.008-4.639Zm-4.689-.008.008-4.592,4.689.008-.008,4.592ZM229.6,4.945l.007-4.709,4.69.008-.008,4.709Zm9.331,37.409-.008,4.639-4.689-.008.008-4.639Zm-4.689-.008.008-4.592,4.689.008-.008,4.592Zm.008-4.592.008-4.709,4.689.008-.008,4.709Zm.008-4.709.007-4.686,4.69.008-.008,4.686Zm0-4.686.007-4.709,4.69.008-.008,4.709Zm.007-4.709.008-4.686,4.69.008-.008,4.686Zm.008-4.686.008-4.709,4.689.008-.007,4.709Zm.008-4.709.008-4.709,4.689.008-.008,4.709Zm.008-9.3L234.3.243l4.689.008-.008,4.709ZM243.6,42.361,243.59,47l-4.666-.008.008-4.639Zm-4.666-.008.008-4.592,4.666.008-.008,4.592Zm.008-4.592.008-4.709,4.666.008-.008,4.709Zm.008-4.709.008-4.686,4.665.008-.007,4.686Zm0-4.686.008-4.709,4.665.008-.007,4.709Zm.008-4.709.008-4.686,4.665.008-.008,4.686Zm.008-4.686.007-4.709,4.666.008-.008,4.709Zm.007-4.709.008-4.709,4.666.008-.008,4.709Zm.008-9.309.008-4.709,4.666.008-.008,4.709Zm4.65,14.018.008-4.709,4.689.008-.007,4.709Zm.008-4.709.008-4.709,4.689.008-.008,4.709Zm0-4.709.008-4.592,4.689.008-.008,4.592Zm.008-4.592.008-4.709,4.689.008-.008,4.709Zm4.674,14.018.007-4.709,4.666.008-.008,4.709Zm.007-4.709.008-4.709L253,9.568l-.008,4.709Zm0-4.709.008-4.592L253,4.976l-.008,4.592Z" fill="#fff"/>
  <path id="Trazado_16" data-name="Trazado 16" d="M42.922,9.3V4.709H38.632V0H8.5V4.278H3.493V8.453H0V34.088H4.259v4.176H8.5v4.215H12.88v4.27H34.317V42.11h8.6V37.518h3.2V9.309C45.056,9.3,43.985,9.3,42.922,9.3ZM20.367,37.5H12.223V34.763H9.48V32.008L6.706,32V29.261H4.025V12.88L6.7,12.9V10.141H9.425V7.386h2.735V4.694h8.206V7.378H14.9v.008H14.9v2.755H12.153L12.145,12.9H9.418v2.739H6.706v10.9H9.418v2.716h2.806v2.739h2.743V34.74h2.712l.008-8.218,5.635.008V23.806h2.743V18.327h2.673v8.234H26.064v2.716l-5.69.016Zm19.085-8.187L36.779,29.3v2.755H34.067v2.755H31.332V37.5H23.126V34.818H28.6v-.008h-.008V32.055H31.34l.008-2.755h2.727V26.561h2.712v-10.9H34.075V12.943H31.269V10.2H28.526V7.457H25.814l-.008,8.218-5.635-.008V18.39H17.428v5.479H14.755V15.635h2.673V12.92l5.69-.016.008-8.2h8.144V7.441h2.743V10.2l2.775.008v2.739h2.681Z" fill="#fff"/>
</svg>
